<svg width="19" height="16" viewBox="0 0 19 16" fill="none" xmlns="http://www.w3.org/2000/svg">
<path d="M14.0421 15.5789V13.0526H11.5158V11.3684H14.0421V8.84211H15.7263V11.3684H18.2526V13.0526H15.7263V15.5789H14.0421ZM3.68421 16C3.37544 16 3.09474 15.9228 2.84211 15.7684C2.58947 15.614 2.38597 15.4105 2.23158 15.1579L0.231579 11.6842C0.077193 11.4175 0 11.1368 0 10.8421C0 10.5474 0.077193 10.2667 0.231579 10L5.51579 0.842105C5.67018 0.561404 5.87719 0.350877 6.13684 0.210526C6.39649 0.0701754 6.6807 0 6.98947 0H10.9684C11.2772 0 11.5579 0.0701754 11.8105 0.210526C12.0632 0.350877 12.2667 0.561404 12.4211 0.842105L16.1684 7.34737C15.9579 7.27719 15.7439 7.22807 15.5263 7.2C15.3088 7.17193 15.0877 7.1579 14.8632 7.1579H14.4947C14.3614 7.1579 14.2386 7.16491 14.1263 7.17895L10.9474 1.68421H6.98947L1.68421 10.8421L3.68421 14.3158H10.2737C10.4281 14.6386 10.607 14.9439 10.8105 15.2316C11.014 15.5193 11.2561 15.7754 11.5368 16H3.68421ZM4.96842 12.2105L4.33684 11.1368L8.21053 4.42105H9.72632L11.8526 8.10526C11.586 8.30175 11.3544 8.49825 11.1579 8.69474C10.9614 8.89123 10.786 9.12281 10.6316 9.38947L8.96842 6.50526L6.65263 10.5263H10.1263C10.014 10.793 9.93684 11.0632 9.89474 11.3368C9.85263 11.6105 9.83158 11.9018 9.83158 12.2105H4.96842Z" fill="#49454F"/>
</svg>
