<svg width="246" height="65" viewBox="0 0 246 65" fill="none" xmlns="http://www.w3.org/2000/svg">
<g clip-path="url(#clip0_11_7264)">
<path d="M109.603 38.2083C109.603 38.3422 109.564 38.4732 109.49 38.5845C109.416 38.6958 109.311 38.7826 109.188 38.8339C109.065 38.8851 108.93 38.8985 108.799 38.8724C108.669 38.8463 108.549 38.7818 108.455 38.6871C108.361 38.5924 108.297 38.4718 108.271 38.3404C108.245 38.2091 108.258 38.0729 108.309 37.9492C108.36 37.8255 108.446 37.7198 108.557 37.6454C108.667 37.571 108.797 37.5312 108.93 37.5312C109.109 37.5312 109.28 37.6026 109.406 37.7296C109.532 37.8565 109.603 38.0288 109.603 38.2083Z" fill="#E6E6E6"/>
<path d="M112.138 38.2083C112.138 38.3422 112.099 38.4732 112.025 38.5845C111.951 38.6958 111.846 38.7826 111.723 38.8339C111.6 38.8851 111.465 38.8985 111.334 38.8724C111.204 38.8463 111.084 38.7818 110.99 38.6871C110.896 38.5924 110.832 38.4718 110.806 38.3404C110.78 38.2091 110.793 38.0729 110.844 37.9492C110.895 37.8255 110.981 37.7198 111.092 37.6454C111.202 37.571 111.333 37.5312 111.466 37.5312C111.644 37.5312 111.815 37.6026 111.941 37.7296C112.067 37.8565 112.138 38.0288 112.138 38.2083Z" fill="white"/>
<path d="M161.861 15.1016C161.861 15.1886 161.836 15.2737 161.788 15.3461C161.741 15.4185 161.673 15.4751 161.593 15.5085C161.513 15.5419 161.425 15.5508 161.341 15.5339C161.256 15.517 161.178 15.4752 161.117 15.4137C161.056 15.3522 161.014 15.2739 160.998 15.1886C160.981 15.1033 160.99 15.0149 161.023 14.9346C161.056 14.8544 161.112 14.7859 161.184 14.7378C161.256 14.6897 161.341 14.6642 161.427 14.6646C161.542 14.665 161.652 14.7112 161.733 14.7931C161.815 14.875 161.861 14.9858 161.861 15.1016Z" fill="white"/>
<path d="M163.502 15.1016C163.502 15.1885 163.477 15.2735 163.429 15.3459C163.381 15.4183 163.314 15.4748 163.234 15.5083C163.154 15.5418 163.067 15.5508 162.982 15.534C162.897 15.5173 162.819 15.4757 162.758 15.4144C162.697 15.353 162.655 15.2749 162.638 15.1897C162.621 15.1045 162.63 15.0162 162.663 14.9359C162.696 14.8556 162.752 14.7869 162.823 14.7386C162.895 14.6903 162.98 14.6646 163.066 14.6646C163.181 14.6645 163.292 14.7105 163.373 14.7925C163.455 14.8744 163.501 14.9855 163.502 15.1016Z" fill="white"/>
<path d="M160.221 15.1016C160.221 15.1886 160.196 15.2737 160.148 15.3461C160.1 15.4185 160.032 15.4751 159.952 15.5085C159.872 15.5419 159.785 15.5508 159.7 15.5339C159.615 15.517 159.537 15.4752 159.476 15.4137C159.415 15.3522 159.374 15.2739 159.357 15.1886C159.34 15.1033 159.349 15.0149 159.382 14.9346C159.415 14.8544 159.472 14.7859 159.543 14.7378C159.615 14.6897 159.7 14.6642 159.786 14.6646C159.901 14.665 160.012 14.7112 160.093 14.7931C160.174 14.875 160.22 14.9858 160.221 15.1016Z" fill="#E6E6E6"/>
<path d="M132.843 64.9982C151.897 64.9982 167.343 64.0904 167.343 62.9705C167.343 61.8507 151.897 60.9429 132.843 60.9429C113.789 60.9429 98.3428 61.8507 98.3428 62.9705C98.3428 64.0904 113.789 64.9982 132.843 64.9982Z" fill="#F5F5F5"/>
<path d="M124.202 5.86426H120.932C118.871 5.864 116.855 6.47565 115.138 7.62264C113.421 8.76964 112.078 10.401 111.277 12.3127H108.674C107.484 12.2958 106.303 12.5171 105.2 12.9636C104.096 13.4101 103.091 14.073 102.244 14.9137C101.397 15.7545 100.725 16.7563 100.266 17.8609C99.8067 18.9656 99.5703 20.1511 99.5703 21.3485C99.5703 22.5459 99.8067 23.7314 100.266 24.8361C100.725 25.9407 101.397 26.9425 102.244 27.7833C103.091 28.624 104.096 29.2869 105.2 29.7334C106.303 30.1799 107.484 30.4012 108.674 30.3843H124.202V5.86426Z" fill="#663CEF"/>
<path d="M116.472 6.3714L116.399 6.2084C116.809 6.02402 117.23 5.8649 117.659 5.73193L117.711 5.91106C117.289 6.03951 116.876 6.19323 116.472 6.3714Z" fill="#663CEF"/>
<path d="M112.41 9.52945L112.271 9.41661C113.089 8.3881 114.082 7.51412 115.204 6.83545L115.296 6.98949C114.192 7.65706 113.215 8.51713 112.41 9.52945Z" fill="#663CEF"/>
<path opacity="0.2" d="M124.202 5.86426H120.932C118.871 5.864 116.855 6.47565 115.138 7.62264C113.421 8.76964 112.078 10.401 111.277 12.3127H108.674C107.484 12.2958 106.303 12.5171 105.2 12.9636C104.096 13.4101 103.091 14.073 102.244 14.9137C101.397 15.7545 100.725 16.7563 100.266 17.8609C99.8067 18.9656 99.5703 20.1511 99.5703 21.3485C99.5703 22.5459 99.8067 23.7314 100.266 24.8361C100.725 25.9407 101.397 26.9425 102.244 27.7833C103.091 28.624 104.096 29.2869 105.2 29.7334C106.303 30.1799 107.484 30.4012 108.674 30.3843H124.202V5.86426Z" fill="black"/>
<path opacity="0.5" d="M111.897 11.0715H116.591L120.061 7.96729H114.655C113.541 8.80801 112.604 9.86315 111.897 11.0715Z" fill="#663CEF"/>
<path opacity="0.5" d="M101.23 16.2964C100.597 17.2372 100.148 18.2907 99.9062 19.4006H105.262V16.2964H101.23Z" fill="#663CEF"/>
<path opacity="0.5" d="M123.204 6.58838H117.111C116.46 6.84446 115.837 7.16612 115.25 7.54848H119.734L123.204 6.58838Z" fill="#663CEF"/>
<path d="M142.071 19.2627C141.624 17.3733 140.586 15.6788 139.108 14.4299C137.631 13.1811 135.793 12.4444 133.868 12.3289C133.056 10.3853 131.685 8.73091 129.931 7.57904C128.177 6.42716 126.121 5.8306 124.027 5.86626C121.933 5.90191 119.898 6.56816 118.183 7.7791C116.469 8.99004 115.154 10.6901 114.409 12.6602C113.174 12.3063 111.879 12.2229 110.61 12.4157C109.341 12.6086 108.128 13.0731 107.053 13.778C105.977 14.4829 105.064 15.4118 104.376 16.5021C103.687 17.5923 103.239 18.8185 103.061 20.098C102.883 21.3774 102.98 22.6804 103.345 23.9189C103.71 25.1575 104.335 26.3029 105.177 27.2778C106.019 28.2527 107.059 29.0345 108.227 29.5704C109.394 30.1063 110.663 30.3839 111.946 30.3844H140.533C141.892 30.3832 143.204 29.8879 144.228 28.9897C145.252 28.0914 145.919 26.8509 146.106 25.4966C146.293 24.1422 145.988 22.7654 145.246 21.6199C144.505 20.4743 143.377 19.6372 142.071 19.2627Z" fill="#663CEF"/>
<path opacity="0.2" d="M141.876 19.9526L141.472 19.8379L141.376 19.4277C140.96 17.6911 140.002 16.1344 138.643 14.9856C137.284 13.8367 135.596 13.1562 133.825 13.0438L133.382 13.0187L133.204 12.6068C132.461 10.8193 131.209 9.29322 129.605 8.2209C128.002 7.14858 126.12 6.578 124.195 6.58107C124.068 6.58107 123.944 6.58107 123.819 6.58107C125.678 6.65121 127.478 7.25513 129.007 8.32154C130.536 9.38796 131.729 10.8724 132.447 12.5996L132.625 13.0116L133.068 13.0366C134.84 13.1491 136.528 13.8296 137.887 14.9784C139.246 16.1272 140.204 17.684 140.62 19.4206L140.716 19.8308L141.12 19.9454C142.266 20.2678 143.258 20.9977 143.911 21.9998C144.563 23.0019 144.833 24.2082 144.67 25.3951C144.506 26.582 143.921 27.6691 143.022 28.4548C142.123 29.2405 140.972 29.6716 139.782 29.6682H140.538C141.725 29.6668 142.87 29.2339 143.765 28.4493C144.659 27.6646 145.242 26.5811 145.405 25.3983C145.569 24.2154 145.302 23.0129 144.655 22.0122C144.007 21.0115 143.022 20.2801 141.882 19.9526H141.876Z" fill="black"/>
<path d="M141.12 19.9527L140.716 19.8381L140.62 19.4279C140.204 17.6913 139.246 16.1345 137.887 14.9857C136.528 13.8369 134.839 13.1564 133.068 13.044L132.625 13.0189L132.447 12.6069C131.729 10.8797 130.535 9.39527 129.006 8.32885C127.478 7.26244 125.678 6.65852 123.819 6.58838H123.807C121.896 6.67261 120.052 7.31603 118.499 8.43979C116.947 9.56354 115.754 11.1188 115.066 12.915L114.835 13.5294L114.207 13.3503L114.152 13.3359C113.431 13.1341 112.686 13.0317 111.938 13.0314C111.808 13.0314 111.68 13.0314 111.55 13.0314C109.4 13.1412 107.377 14.0915 105.912 15.6799C104.447 17.2682 103.656 19.3694 103.706 21.5363C103.757 23.7031 104.645 25.7646 106.183 27.282C107.72 28.7995 109.785 29.653 111.938 29.6612H139.782C140.968 29.6598 142.114 29.2269 143.008 28.4422C143.903 27.6576 144.485 26.5741 144.649 25.3912C144.812 24.2084 144.546 23.0059 143.898 22.0052C143.251 21.0045 142.266 20.273 141.125 19.9455L141.12 19.9527Z" fill="white"/>
<path d="M120.629 18.9926V26.1037H127.746V18.9926H129.996L124.188 12.4224L118.38 18.9926H120.629Z" fill="#663CEF"/>
<path d="M118.271 35.2246H120.485V38.9074C120.485 39.1544 120.388 39.3913 120.214 39.566C120.04 39.7407 119.805 39.8388 119.56 39.8388H119.204C118.958 39.8388 118.723 39.7407 118.55 39.566C118.376 39.3913 118.279 39.1544 118.279 38.9074V35.2246H118.271Z" fill="#663CEF"/>
<path opacity="0.2" d="M118.271 35.2246H120.485V38.9074C120.485 39.1544 120.388 39.3913 120.214 39.566C120.04 39.7407 119.805 39.8388 119.56 39.8388H119.204C118.958 39.8388 118.723 39.7407 118.55 39.566C118.376 39.3913 118.279 39.1544 118.279 38.9074V35.2246H118.271Z" fill="black"/>
<path d="M117.282 30.3848H121.474V34.6085C121.474 35.0759 121.29 35.5243 120.962 35.8548C120.633 36.1853 120.188 36.371 119.724 36.371H119.033C118.569 36.371 118.123 36.1853 117.795 35.8548C117.467 35.5243 117.282 35.0759 117.282 34.6085V30.3848Z" fill="#663CEF"/>
<path opacity="0.2" d="M121.474 31.4434L117.282 32.0793V30.3848H121.474V31.4434Z" fill="black"/>
<path d="M120.595 34.1281C120.903 34.1281 121.152 33.8771 121.152 33.5675C121.152 33.2578 120.903 33.0068 120.595 33.0068C120.287 33.0068 120.038 33.2578 120.038 33.5675C120.038 33.8771 120.287 34.1281 120.595 34.1281Z" fill="white"/>
<path opacity="0.5" d="M119.112 34.1281C119.419 34.1281 119.669 33.8771 119.669 33.5675C119.669 33.2578 119.419 33.0068 119.112 33.0068C118.804 33.0068 118.555 33.2578 118.555 33.5675C118.555 33.8771 118.804 34.1281 119.112 34.1281Z" fill="white"/>
<path d="M133.338 46.031H124.005C122.66 46.0291 121.372 45.4906 120.421 44.5337C119.47 43.5767 118.935 42.2793 118.934 40.926V39.8369H119.823V40.926C119.825 42.0418 120.266 43.1114 121.05 43.9004C121.834 44.6894 122.896 45.1335 124.005 45.1354H133.338V46.031Z" fill="#663CEF"/>
<path d="M155.119 23.5815H139.825C138.544 23.5815 137.505 24.6273 137.505 25.9173V60.6348C137.505 61.9248 138.544 62.9706 139.825 62.9706H155.119C156.4 62.9706 157.439 61.9248 157.439 60.6348V25.9173C157.439 24.6273 156.4 23.5815 155.119 23.5815Z" fill="#663CEF"/>
<path opacity="0.2" d="M155.119 23.5815H139.825C138.544 23.5815 137.505 24.6273 137.505 25.9173V60.6348C137.505 61.9248 138.544 62.9706 139.825 62.9706H155.119C156.4 62.9706 157.439 61.9248 157.439 60.6348V25.9173C157.439 24.6273 156.4 23.5815 155.119 23.5815Z" fill="black"/>
<path d="M150.952 23.5815H135.658C134.377 23.5815 133.338 24.6273 133.338 25.9173V60.6348C133.338 61.9248 134.377 62.9706 135.658 62.9706H150.952C152.233 62.9706 153.272 61.9248 153.272 60.6348V25.9173C153.272 24.6273 152.233 23.5815 150.952 23.5815Z" fill="#663CEF"/>
<path opacity="0.2" d="M152.498 60.6367V25.9174C152.498 25.0577 151.806 24.3608 150.952 24.3608H135.658C134.804 24.3608 134.112 25.0577 134.112 25.9174V60.6367C134.112 61.4964 134.804 62.1933 135.658 62.1933H150.952C151.806 62.1933 152.498 61.4964 152.498 60.6367Z" fill="black"/>
<path d="M152.498 60.6367V25.9174C152.498 25.0577 151.806 24.3608 150.952 24.3608H136.377C135.523 24.3608 134.831 25.0577 134.831 25.9174V60.6367C134.831 61.4964 135.523 62.1933 136.377 62.1933H150.952C151.806 62.1933 152.498 61.4964 152.498 60.6367Z" fill="white"/>
<path opacity="0.3" d="M150.09 28.9143H137.236C136.917 28.9128 136.612 28.7848 136.387 28.558C136.162 28.3313 136.035 28.0241 136.033 27.7034C136.034 27.3824 136.161 27.0747 136.386 26.8476C136.612 26.6204 136.917 26.4921 137.236 26.4907H150.09C150.409 26.4917 150.715 26.6197 150.941 26.8469C151.167 27.0742 151.294 27.3821 151.295 27.7034C151.293 28.0244 151.166 28.3318 150.94 28.5587C150.715 28.7855 150.409 28.9133 150.09 28.9143Z" fill="#663CEF"/>
<path d="M145.854 27.9664H137.045C137.01 27.9666 136.976 27.96 136.944 27.9469C136.912 27.9337 136.883 27.9144 136.858 27.8899C136.834 27.8654 136.815 27.8363 136.801 27.8043C136.788 27.7722 136.781 27.7378 136.781 27.7031C136.781 27.6328 136.809 27.5654 136.858 27.5156C136.908 27.4659 136.975 27.438 137.045 27.438H145.854C145.889 27.438 145.923 27.4449 145.955 27.4582C145.987 27.4715 146.015 27.4911 146.04 27.5157C146.064 27.5404 146.083 27.5696 146.096 27.6018C146.109 27.6339 146.116 27.6684 146.116 27.7031C146.116 27.7729 146.088 27.8399 146.039 27.8893C145.99 27.9387 145.924 27.9664 145.854 27.9664Z" fill="white"/>
<path d="M149.034 27.9682C149.179 27.9682 149.297 27.8495 149.297 27.7031C149.297 27.5567 149.179 27.438 149.034 27.438C148.888 27.438 148.771 27.5567 148.771 27.7031C148.771 27.8495 148.888 27.9682 149.034 27.9682Z" fill="#663CEF"/>
<path d="M150.194 27.9682C150.339 27.9682 150.457 27.8495 150.457 27.7031C150.457 27.5567 150.339 27.438 150.194 27.438C150.049 27.438 149.931 27.5567 149.931 27.7031C149.931 27.8495 150.049 27.9682 150.194 27.9682Z" fill="#663CEF"/>
<path d="M147.872 27.9682C148.017 27.9682 148.135 27.8495 148.135 27.7031C148.135 27.5567 148.017 27.438 147.872 27.438C147.726 27.438 147.608 27.5567 147.608 27.7031C147.608 27.8495 147.726 27.9682 147.872 27.9682Z" fill="#663CEF"/>
<path opacity="0.3" d="M150.09 32.8065H137.236C136.917 32.8056 136.612 32.6777 136.387 32.4508C136.161 32.2239 136.034 31.9165 136.033 31.5956C136.034 31.2748 136.161 30.9673 136.387 30.7405C136.612 30.5136 136.917 30.3857 137.236 30.3848H150.09C150.409 30.3857 150.715 30.5135 150.94 30.7404C151.166 30.9672 151.293 31.2746 151.295 31.5956C151.293 31.9166 151.166 32.2241 150.94 32.4509C150.715 32.6777 150.409 32.8056 150.09 32.8065Z" fill="#663CEF"/>
<path d="M145.854 31.8608H137.045C136.975 31.8608 136.908 31.8328 136.858 31.7831C136.809 31.7334 136.781 31.666 136.781 31.5957C136.781 31.5254 136.809 31.4579 136.858 31.4082C136.908 31.3585 136.975 31.3306 137.045 31.3306H145.854C145.924 31.331 145.99 31.3592 146.039 31.4088C146.088 31.4585 146.116 31.5257 146.116 31.5957C146.116 31.6657 146.088 31.7328 146.039 31.7825C145.99 31.8322 145.924 31.8603 145.854 31.8608Z" fill="white"/>
<path d="M149.034 31.8608C149.179 31.8608 149.297 31.7421 149.297 31.5957C149.297 31.4493 149.179 31.3306 149.034 31.3306C148.888 31.3306 148.771 31.4493 148.771 31.5957C148.771 31.7421 148.888 31.8608 149.034 31.8608Z" fill="#663CEF"/>
<path d="M150.194 31.8608C150.339 31.8608 150.457 31.7421 150.457 31.5957C150.457 31.4493 150.339 31.3306 150.194 31.3306C150.049 31.3306 149.931 31.4493 149.931 31.5957C149.931 31.7421 150.049 31.8608 150.194 31.8608Z" fill="#663CEF"/>
<path opacity="0.3" d="M147.872 31.8608C148.017 31.8608 148.135 31.7421 148.135 31.5957C148.135 31.4493 148.017 31.3306 147.872 31.3306C147.726 31.3306 147.608 31.4493 147.608 31.5957C147.608 31.7421 147.726 31.8608 147.872 31.8608Z" fill="#663CEF"/>
<path opacity="0.3" d="M150.09 36.7004H137.236C136.917 36.699 136.612 36.5709 136.387 36.3442C136.162 36.1174 136.035 35.8102 136.033 35.4895C136.034 35.1685 136.161 34.8609 136.386 34.6337C136.612 34.4065 136.917 34.2783 137.236 34.2769H150.09C150.409 34.2778 150.715 34.4059 150.941 34.6331C151.167 34.8603 151.294 35.1682 151.295 35.4895C151.293 35.8105 151.166 36.118 150.94 36.3448C150.715 36.5716 150.409 36.6994 150.09 36.7004Z" fill="#663CEF"/>
<path d="M145.854 35.753H137.045C137.01 35.7533 136.976 35.7466 136.944 35.7335C136.912 35.7204 136.883 35.701 136.858 35.6765C136.834 35.6521 136.815 35.623 136.801 35.5909C136.788 35.5588 136.781 35.5244 136.781 35.4897C136.781 35.4194 136.809 35.352 136.858 35.3023C136.908 35.2525 136.975 35.2246 137.045 35.2246H145.854C145.889 35.2246 145.923 35.2315 145.955 35.2448C145.987 35.2582 146.015 35.2777 146.04 35.3024C146.064 35.327 146.083 35.3562 146.096 35.3884C146.109 35.4206 146.116 35.455 146.116 35.4897C146.116 35.5595 146.088 35.6265 146.039 35.6759C145.99 35.7253 145.924 35.753 145.854 35.753Z" fill="white"/>
<path d="M149.034 35.7548C149.179 35.7548 149.297 35.6361 149.297 35.4897C149.297 35.3433 149.179 35.2246 149.034 35.2246C148.888 35.2246 148.771 35.3433 148.771 35.4897C148.771 35.6361 148.888 35.7548 149.034 35.7548Z" fill="#663CEF"/>
<path d="M150.194 35.7548C150.339 35.7548 150.457 35.6361 150.457 35.4897C150.457 35.3433 150.339 35.2246 150.194 35.2246C150.049 35.2246 149.931 35.3433 149.931 35.4897C149.931 35.6361 150.049 35.7548 150.194 35.7548Z" fill="#663CEF"/>
<path opacity="0.6" d="M147.872 35.7548C148.017 35.7548 148.135 35.6361 148.135 35.4897C148.135 35.3433 148.017 35.2246 147.872 35.2246C147.726 35.2246 147.608 35.3433 147.608 35.4897C147.608 35.6361 147.726 35.7548 147.872 35.7548Z" fill="#663CEF"/>
<path opacity="0.3" d="M150.09 38.1709H137.236C136.572 38.1709 136.033 38.713 136.033 39.3818C136.033 40.0505 136.572 40.5926 137.236 40.5926H150.09C150.754 40.5926 151.293 40.0505 151.293 39.3818C151.293 38.713 150.754 38.1709 150.09 38.1709Z" fill="#663CEF"/>
<path d="M145.854 39.6415H137.045C136.975 39.6415 136.908 39.6136 136.858 39.5639C136.809 39.5142 136.781 39.4467 136.781 39.3764C136.781 39.3061 136.809 39.2387 136.858 39.189C136.908 39.1393 136.975 39.1113 137.045 39.1113H145.854C145.924 39.1118 145.99 39.1399 146.039 39.1896C146.088 39.2393 146.116 39.3064 146.116 39.3764C146.116 39.4464 146.088 39.5136 146.039 39.5633C145.99 39.6129 145.924 39.6411 145.854 39.6415Z" fill="white"/>
<path d="M149.034 39.6469C149.179 39.6469 149.297 39.5282 149.297 39.3818C149.297 39.2354 149.179 39.1167 149.034 39.1167C148.888 39.1167 148.771 39.2354 148.771 39.3818C148.771 39.5282 148.888 39.6469 149.034 39.6469Z" fill="#663CEF"/>
<path opacity="0.3" d="M150.194 39.6469C150.339 39.6469 150.457 39.5282 150.457 39.3818C150.457 39.2354 150.339 39.1167 150.194 39.1167C150.049 39.1167 149.931 39.2354 149.931 39.3818C149.931 39.5282 150.049 39.6469 150.194 39.6469Z" fill="#663CEF"/>
<path opacity="0.6" d="M147.872 39.6469C148.017 39.6469 148.135 39.5282 148.135 39.3818C148.135 39.2354 148.017 39.1167 147.872 39.1167C147.726 39.1167 147.608 39.2354 147.608 39.3818C147.608 39.5282 147.726 39.6469 147.872 39.6469Z" fill="#663CEF"/>
<path opacity="0.3" d="M150.09 44.487H137.236C136.917 44.4856 136.612 44.3576 136.387 44.1308C136.162 43.904 136.035 43.5968 136.033 43.2761C136.034 42.9551 136.161 42.6475 136.386 42.4203C136.612 42.1932 136.917 42.0649 137.236 42.0635H150.09C150.409 42.0644 150.715 42.1925 150.941 42.4197C151.167 42.6469 151.294 42.9548 151.295 43.2761C151.293 43.5972 151.166 43.9046 150.94 44.1314C150.715 44.3582 150.409 44.4861 150.09 44.487Z" fill="#663CEF"/>
<path d="M145.854 43.5392H137.045C137.01 43.5394 136.976 43.5328 136.944 43.5196C136.912 43.5065 136.883 43.4871 136.858 43.4627C136.834 43.4382 136.815 43.4091 136.801 43.377C136.788 43.345 136.781 43.3106 136.781 43.2758C136.781 43.241 136.788 43.2066 136.801 43.1744C136.815 43.1422 136.834 43.113 136.858 43.0884C136.883 43.0638 136.912 43.0442 136.944 43.0309C136.976 43.0176 137.01 43.0107 137.045 43.0107H145.854C145.889 43.0107 145.923 43.0176 145.955 43.031C145.987 43.0443 146.015 43.0639 146.04 43.0885C146.064 43.1131 146.083 43.1424 146.096 43.1745C146.109 43.2067 146.116 43.2411 146.116 43.2758C146.116 43.3457 146.088 43.4127 146.039 43.462C145.99 43.5114 145.924 43.5392 145.854 43.5392Z" fill="white"/>
<path d="M149.034 43.5409C149.179 43.5409 149.297 43.4223 149.297 43.2758C149.297 43.1294 149.179 43.0107 149.034 43.0107C148.888 43.0107 148.771 43.1294 148.771 43.2758C148.771 43.4223 148.888 43.5409 149.034 43.5409Z" fill="#663CEF"/>
<path opacity="0.6" d="M150.194 43.5409C150.339 43.5409 150.457 43.4223 150.457 43.2758C150.457 43.1294 150.339 43.0107 150.194 43.0107C150.049 43.0107 149.931 43.1294 149.931 43.2758C149.931 43.4223 150.049 43.5409 150.194 43.5409Z" fill="#663CEF"/>
<path d="M147.872 43.5409C148.017 43.5409 148.135 43.4223 148.135 43.2758C148.135 43.1294 148.017 43.0107 147.872 43.0107C147.726 43.0107 147.608 43.1294 147.608 43.2758C147.608 43.4223 147.726 43.5409 147.872 43.5409Z" fill="#663CEF"/>
<path opacity="0.3" d="M150.09 48.3793H137.236C136.917 48.3783 136.612 48.2504 136.387 48.0236C136.161 47.7967 136.034 47.4892 136.033 47.1684C136.034 46.8475 136.161 46.5401 136.387 46.3132C136.612 46.0863 136.917 45.9585 137.236 45.9575H150.09C150.408 45.9585 150.713 46.0858 150.939 46.3118C151.165 46.5379 151.292 46.8444 151.295 47.1648C151.294 47.4864 151.167 47.7948 150.942 48.0224C150.716 48.25 150.41 48.3783 150.09 48.3793Z" fill="#663CEF"/>
<path d="M145.854 47.4335H137.045C136.975 47.4335 136.908 47.4056 136.858 47.3559C136.809 47.3062 136.781 47.2387 136.781 47.1684C136.781 47.1336 136.788 47.0991 136.801 47.067C136.815 47.0348 136.834 47.0056 136.858 46.981C136.883 46.9563 136.912 46.9368 136.944 46.9235C136.976 46.9102 137.01 46.9033 137.045 46.9033H145.854C145.924 46.9038 145.99 46.9319 146.039 46.9816C146.088 47.0313 146.116 47.0984 146.116 47.1684C146.116 47.2384 146.088 47.3056 146.039 47.3552C145.99 47.4049 145.924 47.433 145.854 47.4335Z" fill="white"/>
<path opacity="0.3" d="M149.034 47.4335C149.179 47.4335 149.297 47.3148 149.297 47.1684C149.297 47.022 149.179 46.9033 149.034 46.9033C148.888 46.9033 148.771 47.022 148.771 47.1684C148.771 47.3148 148.888 47.4335 149.034 47.4335Z" fill="#663CEF"/>
<path d="M150.194 47.4335C150.339 47.4335 150.457 47.3148 150.457 47.1684C150.457 47.022 150.339 46.9033 150.194 46.9033C150.049 46.9033 149.931 47.022 149.931 47.1684C149.931 47.3148 150.049 47.4335 150.194 47.4335Z" fill="#663CEF"/>
<path d="M147.872 47.4335C148.017 47.4335 148.135 47.3148 148.135 47.1684C148.135 47.022 148.017 46.9033 147.872 46.9033C147.726 46.9033 147.608 47.022 147.608 47.1684C147.608 47.3148 147.726 47.4335 147.872 47.4335Z" fill="#663CEF"/>
<path opacity="0.3" d="M150.09 52.2736H137.236C136.917 52.2727 136.612 52.1448 136.387 51.9179C136.161 51.6911 136.034 51.3836 136.033 51.0628C136.034 50.7417 136.161 50.4341 136.386 50.207C136.612 49.9798 136.917 49.8515 137.236 49.8501H150.09C150.409 49.851 150.715 49.9791 150.941 50.2063C151.167 50.4335 151.294 50.7414 151.295 51.0628C151.293 51.3838 151.166 51.6912 150.94 51.918C150.715 52.1449 150.409 52.2727 150.09 52.2736Z" fill="#663CEF"/>
<path d="M145.854 51.3276H137.045C136.975 51.3276 136.908 51.2996 136.858 51.2499C136.809 51.2002 136.781 51.1328 136.781 51.0625C136.781 50.9922 136.809 50.9247 136.858 50.875C136.908 50.8253 136.975 50.7974 137.045 50.7974H145.854C145.889 50.7974 145.923 50.8042 145.955 50.8176C145.987 50.8309 146.015 50.8505 146.04 50.8751C146.064 50.8998 146.083 50.929 146.096 50.9612C146.109 50.9933 146.116 51.0277 146.116 51.0625C146.116 51.1325 146.088 51.1996 146.039 51.2493C145.99 51.299 145.924 51.3271 145.854 51.3276Z" fill="white"/>
<path opacity="0.3" d="M149.034 51.3276C149.179 51.3276 149.297 51.2089 149.297 51.0625C149.297 50.9161 149.179 50.7974 149.034 50.7974C148.888 50.7974 148.771 50.9161 148.771 51.0625C148.771 51.2089 148.888 51.3276 149.034 51.3276Z" fill="#663CEF"/>
<path d="M150.194 51.3276C150.339 51.3276 150.457 51.2089 150.457 51.0625C150.457 50.9161 150.339 50.7974 150.194 50.7974C150.049 50.7974 149.931 50.9161 149.931 51.0625C149.931 51.2089 150.049 51.3276 150.194 51.3276Z" fill="#663CEF"/>
<path opacity="0.3" d="M147.872 51.3276C148.017 51.3276 148.135 51.2089 148.135 51.0625C148.135 50.9161 148.017 50.7974 147.872 50.7974C147.726 50.7974 147.608 50.9161 147.608 51.0625C147.608 51.2089 147.726 51.3276 147.872 51.3276Z" fill="#663CEF"/>
<path opacity="0.3" d="M150.09 53.7441H137.236C136.572 53.7441 136.033 54.2863 136.033 54.955C136.033 55.6237 136.572 56.1659 137.236 56.1659H150.09C150.754 56.1659 151.293 55.6237 151.293 54.955C151.293 54.2863 150.754 53.7441 150.09 53.7441Z" fill="#663CEF"/>
<path d="M145.854 55.2255H137.045C137.01 55.2255 136.976 55.2187 136.944 55.2053C136.912 55.192 136.883 55.1725 136.858 55.1479C136.834 55.1233 136.815 55.094 136.801 55.0619C136.788 55.0297 136.781 54.9952 136.781 54.9604C136.781 54.8901 136.809 54.8227 136.858 54.773C136.908 54.7232 136.975 54.6953 137.045 54.6953H145.854C145.924 54.6958 145.99 54.7239 146.039 54.7736C146.088 54.8233 146.116 54.8904 146.116 54.9604C146.116 55.0304 146.088 55.0976 146.039 55.1472C145.99 55.1969 145.924 55.225 145.854 55.2255Z" fill="white"/>
<path d="M149.034 55.2216C149.179 55.2216 149.297 55.1029 149.297 54.9565C149.297 54.8101 149.179 54.6914 149.034 54.6914C148.888 54.6914 148.771 54.8101 148.771 54.9565C148.771 55.1029 148.888 55.2216 149.034 55.2216Z" fill="#663CEF"/>
<path d="M150.194 55.2216C150.339 55.2216 150.457 55.1029 150.457 54.9565C150.457 54.8101 150.339 54.6914 150.194 54.6914C150.049 54.6914 149.931 54.8101 149.931 54.9565C149.931 55.1029 150.049 55.2216 150.194 55.2216Z" fill="#663CEF"/>
<path d="M147.872 55.2216C148.017 55.2216 148.135 55.1029 148.135 54.9565C148.135 54.8101 148.017 54.6914 147.872 54.6914C147.726 54.6914 147.608 54.8101 147.608 54.9565C147.608 55.1029 147.726 55.2216 147.872 55.2216Z" fill="#663CEF"/>
<path opacity="0.3" d="M150.09 60.0617H137.236C136.917 60.0608 136.612 59.9329 136.387 59.706C136.161 59.4791 136.034 59.1717 136.033 58.8508C136.034 58.5298 136.161 58.2222 136.386 57.995C136.612 57.7679 136.917 57.6396 137.236 57.6382H150.09C150.409 57.6391 150.715 57.7672 150.941 57.9944C151.167 58.2216 151.294 58.5295 151.295 58.8508C151.293 59.1719 151.166 59.4793 150.94 59.7061C150.715 59.933 150.409 60.0608 150.09 60.0617Z" fill="#663CEF"/>
<path d="M145.854 59.1142H137.045C136.975 59.1142 136.908 59.0863 136.858 59.0365C136.809 58.9868 136.781 58.9194 136.781 58.8491C136.781 58.7788 136.809 58.7113 136.858 58.6616C136.908 58.6119 136.975 58.584 137.045 58.584H145.854C145.889 58.584 145.923 58.5909 145.955 58.6042C145.987 58.6175 146.015 58.6371 146.04 58.6617C146.064 58.6864 146.083 58.7156 146.096 58.7478C146.109 58.7799 146.116 58.8144 146.116 58.8491C146.116 58.9191 146.088 58.9862 146.039 59.0359C145.99 59.0856 145.924 59.1137 145.854 59.1142Z" fill="white"/>
<path d="M149.034 59.1142C149.179 59.1142 149.297 58.9955 149.297 58.8491C149.297 58.7027 149.179 58.584 149.034 58.584C148.888 58.584 148.771 58.7027 148.771 58.8491C148.771 58.9955 148.888 59.1142 149.034 59.1142Z" fill="#663CEF"/>
<path d="M150.194 59.1142C150.339 59.1142 150.457 58.9955 150.457 58.8491C150.457 58.7027 150.339 58.584 150.194 58.584C150.049 58.584 149.931 58.7027 149.931 58.8491C149.931 58.9955 150.049 59.1142 150.194 59.1142Z" fill="#663CEF"/>
<path opacity="0.6" d="M147.872 59.1142C148.017 59.1142 148.135 58.9955 148.135 58.8491C148.135 58.7027 148.017 58.584 147.872 58.584C147.726 58.584 147.608 58.7027 147.608 58.8491C147.608 58.9955 147.726 59.1142 147.872 59.1142Z" fill="#663CEF"/>
<path opacity="0.2" d="M156.252 31.7139H154.455C154.163 31.7139 153.927 31.952 153.927 32.2459V34.4813C153.927 34.7751 154.163 35.0133 154.455 35.0133H156.252C156.544 35.0133 156.781 34.7751 156.781 34.4813V32.2459C156.781 31.952 156.544 31.7139 156.252 31.7139Z" fill="black"/>
<path opacity="0.2" d="M133.337 48.8555V60.6346C133.341 61.251 133.586 61.8411 134.019 62.277C134.452 62.7129 135.038 62.9594 135.65 62.9632H138.497L137.479 49.9642L133.337 48.8555Z" fill="black"/>
<path d="M129.095 48.9559L127.958 50.3888C127.858 50.5162 127.731 50.6194 127.586 50.691C127.442 50.7626 127.283 50.8007 127.122 50.8026H116.853C116.585 50.8079 116.329 50.9118 116.132 51.0946C115.935 51.2775 115.812 51.5267 115.785 51.7949L114.881 62.7984C114.867 62.9254 114.881 63.054 114.92 63.1754C114.959 63.2969 115.024 63.4084 115.11 63.5026C115.196 63.5967 115.301 63.6713 115.417 63.7214C115.534 63.7714 115.66 63.7957 115.787 63.7926H135.894C136.162 63.7881 136.419 63.6842 136.616 63.5008C136.813 63.3174 136.936 63.0673 136.961 62.7984L138.052 49.5434C138.066 49.4165 138.053 49.2882 138.013 49.167C137.973 49.0457 137.909 48.9344 137.823 48.8405C137.737 48.7465 137.632 48.6721 137.516 48.6221C137.399 48.5722 137.273 48.548 137.147 48.551H129.929C129.769 48.5524 129.611 48.5893 129.467 48.6593C129.323 48.7293 129.196 48.8306 129.095 48.9559Z" fill="#663CEF"/>
<path opacity="0.3" d="M129.095 48.9559L127.958 50.3888C127.858 50.5162 127.731 50.6194 127.586 50.691C127.442 50.7626 127.283 50.8007 127.122 50.8026H116.853C116.585 50.8079 116.329 50.9118 116.132 51.0946C115.935 51.2775 115.812 51.5267 115.785 51.7949L114.881 62.7984C114.867 62.9254 114.881 63.054 114.92 63.1754C114.959 63.2969 115.024 63.4084 115.11 63.5026C115.196 63.5967 115.301 63.6713 115.417 63.7214C115.534 63.7714 115.66 63.7957 115.787 63.7926H135.894C136.162 63.7881 136.419 63.6842 136.616 63.5008C136.813 63.3174 136.936 63.0673 136.961 62.7984L138.052 49.5434C138.066 49.4165 138.053 49.2882 138.013 49.167C137.973 49.0457 137.909 48.9344 137.823 48.8405C137.737 48.7465 137.632 48.6721 137.516 48.6221C137.399 48.5722 137.273 48.548 137.147 48.551H129.929C129.769 48.5524 129.611 48.5893 129.467 48.6593C129.323 48.7293 129.196 48.8306 129.095 48.9559Z" fill="black"/>
<path d="M125.035 49.7388L124.113 51.093C124.025 51.2163 123.909 51.3163 123.775 51.3843C123.64 51.4524 123.491 51.4864 123.341 51.4835H114.894C114.771 51.4793 114.648 51.501 114.534 51.5471C114.419 51.5932 114.316 51.6628 114.229 51.7514C114.143 51.84 114.076 51.9457 114.032 52.0617C113.989 52.1778 113.969 52.3017 113.976 52.4256L114.73 62.8488C114.759 63.1092 114.883 63.3495 115.078 63.5232C115.273 63.6969 115.525 63.7917 115.785 63.7892H135.892C136.015 63.7933 136.138 63.7717 136.252 63.7257C136.366 63.6796 136.47 63.6102 136.556 63.5219C136.643 63.4335 136.71 63.328 136.753 63.2122C136.797 63.0963 136.817 62.9726 136.81 62.8488L135.901 50.2887C135.872 50.0285 135.748 49.7884 135.553 49.6147C135.358 49.4411 135.106 49.3462 134.846 49.3483H125.807C125.656 49.3454 125.507 49.3794 125.373 49.4474C125.238 49.5155 125.122 49.6155 125.035 49.7388Z" fill="#663CEF"/>
</g>
<path d="M233.567 51.1452C233.571 50.715 233.679 50.2924 233.882 49.914C234.085 49.5357 234.377 49.2129 234.732 48.9739C235.087 48.7349 235.494 48.5868 235.918 48.5426C236.343 48.4983 236.772 48.5591 237.168 48.7198C237.455 48.1247 237.919 47.6344 238.496 47.317C239.072 46.9996 239.732 46.8707 240.384 46.9482C241.036 47.0258 241.649 47.3059 242.136 47.7498C242.623 48.1937 242.961 48.7793 243.103 49.4256C243.81 49.4702 244.472 49.7907 244.949 50.319C245.426 50.8474 245.679 51.5421 245.656 52.2558C245.633 52.9695 245.335 53.646 244.825 54.1419C244.315 54.6378 243.634 54.9141 242.926 54.9121H234.262C233.812 54.9091 233.378 54.7483 233.034 54.4573C232.689 54.1664 232.456 53.7634 232.375 53.318C232.293 52.8725 232.369 52.4123 232.587 52.0167C232.806 51.6211 233.155 51.3148 233.574 51.1505L233.567 51.1452Z" fill="#F8F9FA"/>
<path d="M187.806 21.6792C187.81 21.1729 187.937 20.6753 188.176 20.2297C188.414 19.7841 188.757 19.4041 189.175 19.1226C189.593 18.8412 190.072 18.6669 190.572 18.6148C191.072 18.5628 191.577 18.6346 192.042 18.824C192.384 18.1277 192.931 17.5551 193.608 17.1847C194.286 16.8143 195.06 16.6644 195.826 16.7554C196.591 16.8465 197.31 17.1741 197.883 17.6933C198.456 18.2125 198.856 18.8978 199.027 19.6552C199.875 19.6832 200.678 20.0498 201.258 20.6742C201.838 21.2987 202.149 22.1299 202.121 22.985C202.093 23.8402 201.729 24.6491 201.11 25.2339C200.49 25.8188 199.665 26.1316 198.817 26.1036H188.614C188.083 26.1032 187.569 25.9153 187.161 25.5725C186.752 25.2297 186.476 24.7536 186.38 24.227C186.284 23.7004 186.374 23.1564 186.635 22.6897C186.895 22.223 187.309 21.8629 187.806 21.6721V21.6792Z" fill="#F5F5F5"/>
<path d="M50.2108 43.3484C50.2154 42.6168 50.3978 41.8974 50.742 41.2533C51.0861 40.6091 51.5817 40.0597 52.1852 39.6532C52.7888 39.2468 53.482 38.9955 54.2042 38.9215C54.9263 38.8474 55.6555 38.9529 56.3279 39.2286C56.8168 38.2179 57.6053 37.3855 58.5844 36.8467C59.5635 36.3078 60.6846 36.0891 61.7924 36.221C62.9003 36.3528 63.94 36.8287 64.7677 37.5826C65.5953 38.3365 66.1698 39.3311 66.4117 40.4287C67.6371 40.4689 68.7966 40.998 69.635 41.8998C70.4734 42.8016 70.922 44.0021 70.8822 45.2373C70.8423 46.4724 70.3173 47.641 69.4226 48.4861C68.5279 49.3311 67.3368 49.7832 66.1113 49.7431H51.3802C50.6135 49.7422 49.8712 49.4708 49.2823 48.9759C48.6933 48.4811 48.2948 47.7941 48.1559 47.034C48.017 46.274 48.1464 45.489 48.5218 44.8151C48.8972 44.1412 49.4947 43.621 50.2108 43.3448V43.3484Z" fill="#F0F0F0"/>
<path d="M2.35677 16.2325C2.36225 15.535 2.53687 14.8494 2.86541 14.2356C3.19396 13.6217 3.66646 13.0981 4.24174 12.7104C4.81703 12.3228 5.47765 12.0828 6.16604 12.0114C6.85442 11.9399 7.5497 12.0393 8.19127 12.3007C8.65816 11.337 9.4107 10.5433 10.3447 10.0296C11.2788 9.51585 12.3482 9.30742 13.4049 9.43313C14.4617 9.55884 15.4535 10.0125 16.2432 10.7313C17.033 11.4501 17.5815 12.3985 17.8129 13.4453C18.9531 13.5251 20.0182 14.0473 20.7843 14.9021C21.5504 15.757 21.9578 16.8779 21.921 18.0292C21.8842 19.1805 21.406 20.2727 20.5868 21.076C19.7677 21.8793 18.6715 22.3313 17.5286 22.3369H3.47284C2.74101 22.3366 2.03241 22.078 1.47009 21.6059C0.907765 21.1338 0.527251 20.4782 0.394628 19.7528C0.262005 19.0274 0.385648 18.2781 0.744088 17.635C1.10253 16.9919 1.67312 16.4957 2.35677 16.2325Z" fill="#F8F9FA"/>
<defs>
<clipPath id="clip0_11_7264">
<rect width="69" height="65" fill="white" transform="translate(98.3428)"/>
</clipPath>
</defs>
</svg>
