<svg width="23" height="16" viewBox="0 0 23 16" fill="none" xmlns="http://www.w3.org/2000/svg">
<path d="M6.5625 14.7498L0.40625 8.62485C0.302083 8.52068 0.229167 8.41651 0.1875 8.31235C0.145833 8.20818 0.125 8.0936 0.125 7.9686C0.125 7.8436 0.145833 7.72901 0.1875 7.62485C0.229167 7.52068 0.302083 7.41651 0.40625 7.31235L6.5625 1.1561C6.72917 0.989429 6.94792 0.900887 7.21875 0.890471C7.48958 0.880054 7.71875 0.968596 7.90625 1.1561C8.09375 1.3436 8.1875 1.56755 8.1875 1.82797C8.1875 2.08839 8.09375 2.31235 7.90625 2.49985L3.375 7.0311H21.3125C21.5833 7.0311 21.8073 7.11964 21.9844 7.29672C22.1615 7.4738 22.25 7.69776 22.25 7.9686C22.25 8.23943 22.1615 8.46339 21.9844 8.64047C21.8073 8.81755 21.5833 8.9061 21.3125 8.9061H3.375L7.90625 13.4373C8.07292 13.604 8.16146 13.8176 8.17188 14.078C8.18229 14.3384 8.09375 14.5623 7.90625 14.7498C7.71875 14.9373 7.49479 15.0311 7.23438 15.0311C6.97396 15.0311 6.75 14.9373 6.5625 14.7498Z" fill="#374253"/>
</svg>
