<svg width="37" height="37" viewBox="0 0 37 37" fill="none" xmlns="http://www.w3.org/2000/svg">
<path d="M15.8204 23.25C15.1401 23.25 14.5667 23.0151 14.1 22.5454C13.6333 22.0757 13.4 21.5007 13.4 20.8204C13.4 20.1401 13.6349 19.5667 14.1046 19.1C14.5743 18.6333 15.1493 18.4 15.8296 18.4C16.5099 18.4 17.0833 18.6349 17.55 19.1046C18.0167 19.5743 18.25 20.1493 18.25 20.8296C18.25 21.5099 18.0151 22.0833 17.5454 22.55C17.0757 23.0167 16.5007 23.25 15.8204 23.25ZM11.5 29C11.1 29 10.75 28.85 10.45 28.55C10.15 28.25 10 27.9 10 27.5V12C10 11.6 10.15 11.25 10.45 10.95C10.75 10.65 11.1 10.5 11.5 10.5H13.125V9.8C13.125 9.57333 13.2017 9.38333 13.355 9.23C13.5083 9.07667 13.6983 9 13.925 9C14.1588 9 14.3547 9.07667 14.5128 9.23C14.6709 9.38333 14.75 9.57333 14.75 9.8V10.5H23.25V9.8C23.25 9.57333 23.3267 9.38333 23.48 9.23C23.6333 9.07667 23.8233 9 24.05 9C24.2838 9 24.4797 9.07667 24.6378 9.23C24.7959 9.38333 24.875 9.57333 24.875 9.8V10.5H26.5C26.9 10.5 27.25 10.65 27.55 10.95C27.85 11.25 28 11.6 28 12V27.5C28 27.9 27.85 28.25 27.55 28.55C27.25 28.85 26.9 29 26.5 29H11.5ZM11.5 27.5H26.5V16.75H11.5V27.5ZM11.5 15.25H26.5V12H11.5V15.25Z" fill="#663CEF"/>
</svg>
