<svg width="35" height="35" viewBox="0 0 35 35" fill="none" xmlns="http://www.w3.org/2000/svg">
<circle cx="17.5" cy="17.5" r="17" fill="#1D1B20" stroke="white"/>
<path d="M17.2132 21.3639C18.0859 21.3639 18.8171 21.069 19.4069 20.4792C19.9968 19.8894 20.2917 19.1581 20.2917 18.2854C20.2917 17.4127 19.9968 16.6845 19.4069 16.1007C18.8171 15.5169 18.0859 15.225 17.2132 15.225C16.3405 15.225 15.6123 15.5169 15.0285 16.1007C14.4447 16.6845 14.1528 17.4127 14.1528 18.2854C14.1528 19.1581 14.4447 19.8894 15.0285 20.4792C15.6123 21.069 16.3405 21.3639 17.2132 21.3639ZM11.0833 24C10.7944 24 10.5417 23.8917 10.325 23.675C10.1083 23.4583 10 23.2056 10 22.9167V13.6542C10 13.3773 10.1083 13.1275 10.325 12.9049C10.5417 12.6822 10.7944 12.5708 11.0833 12.5708H13.7375L14.7306 11.3792C14.8269 11.2468 14.9472 11.1505 15.0917 11.0903C15.2361 11.0301 15.3926 11 15.5611 11H18.8833C19.0519 11 19.2083 11.0301 19.3528 11.0903C19.4972 11.1505 19.6176 11.2468 19.7139 11.3792L20.7069 12.5708H23.3611C23.638 12.5708 23.8877 12.6822 24.1104 12.9049C24.3331 13.1275 24.4444 13.3773 24.4444 13.6542V22.9167C24.4444 23.2056 24.3331 23.4583 24.1104 23.675C23.8877 23.8917 23.638 24 23.3611 24H11.0833ZM23.3611 22.9167V13.6542H11.0833V22.9167H23.3611Z" fill="white"/>
</svg>
