<svg width="13" height="15" viewBox="0 0 13 15" fill="none" xmlns="http://www.w3.org/2000/svg">
<path d="M6.09306 7.42386C6.45995 7.42386 6.77348 7.29322 7.03363 7.03194C7.29378 6.77067 7.42386 6.45658 7.42386 6.08968C7.42386 5.72279 7.29322 5.40926 7.03193 5.14911C6.77067 4.88896 6.45658 4.75888 6.08968 4.75888C5.72278 4.75888 5.40926 4.88952 5.14911 5.15081C4.88896 5.41207 4.75888 5.72616 4.75888 6.09306C4.75888 6.45996 4.88952 6.77348 5.1508 7.03363C5.41207 7.29378 5.72616 7.42386 6.09306 7.42386ZM6.09137 13.7246C7.77919 12.1891 9.02601 10.7963 9.83185 9.54632C10.6377 8.29632 11.0406 7.19543 11.0406 6.24365C11.0406 4.74886 10.5629 3.5249 9.60738 2.5718C8.65192 1.61869 7.47991 1.14213 6.09137 1.14213C4.70283 1.14213 3.53082 1.61869 2.57536 2.5718C1.61987 3.5249 1.14213 4.74886 1.14213 6.24365C1.14213 7.19543 1.55457 8.29632 2.37944 9.54632C3.20431 10.7963 4.44162 12.1891 6.09137 13.7246ZM6.10089 15C6.0184 15 5.93909 14.9873 5.86294 14.9619C5.7868 14.9365 5.717 14.8985 5.65355 14.8477C3.76269 13.1853 2.34772 11.6441 1.40863 10.2241C0.469543 8.80411 0 7.4773 0 6.24365C0 4.3401 0.61231 2.8236 1.83693 1.69416C3.06155 0.564721 4.47969 0 6.09137 0C7.70304 0 9.12119 0.564721 10.3458 1.69416C11.5704 2.8236 12.1827 4.3401 12.1827 6.24365C12.1827 7.47462 11.7132 8.80076 10.7741 10.2221C9.83502 11.6434 8.42005 13.1853 6.52919 14.8477C6.46574 14.8985 6.39911 14.9365 6.32931 14.9619C6.25952 14.9873 6.18337 15 6.10089 15Z" fill="#49454F"/>
</svg>
