<svg width="50" height="50" viewBox="0 0 50 50" fill="none" xmlns="http://www.w3.org/2000/svg">
<rect width="50" height="50" rx="25" fill="#758090"/>
<path d="M24.9822 24.7251C23.6955 24.7251 22.6455 24.3185 21.8322 23.5052C21.0189 22.6919 20.6123 21.6419 20.6123 20.3552C20.6123 19.0685 21.0189 18.0168 21.8322 17.2001C22.6455 16.3834 23.6955 15.9751 24.9822 15.9751C26.2689 15.9751 27.3248 16.3834 28.1498 17.2001C28.9748 18.0168 29.3873 19.0685 29.3873 20.3552C29.3873 21.6419 28.9748 22.6919 28.1498 23.5052C27.3248 24.3185 26.2689 24.7251 24.9822 24.7251ZM18.7123 34.0251C18.0448 34.0251 17.4863 33.7959 17.0367 33.3376C16.5871 32.8793 16.3623 32.3251 16.3623 31.6751V31.0001C16.3623 30.2668 16.5509 29.6216 16.9281 29.0647C17.3053 28.5077 17.8001 28.0862 18.4123 27.8001C19.5623 27.2834 20.6748 26.8959 21.7498 26.6376C22.8248 26.3793 23.9017 26.2501 24.9806 26.2501C26.0928 26.2501 27.1803 26.3834 28.2431 26.6501C29.3059 26.9168 30.404 27.3001 31.5373 27.8001C32.1706 28.0668 32.679 28.4793 33.0623 29.0376C33.4456 29.5959 33.6373 30.2501 33.6373 31.0001V31.6751C33.6373 32.3251 33.4101 32.8793 32.9556 33.3376C32.5011 33.7959 31.9367 34.0251 31.2623 34.0251H18.7123Z" fill="white"/>
</svg>
