<svg width="16" height="12" viewBox="0 0 16 12" fill="none" xmlns="http://www.w3.org/2000/svg">
<path d="M0.542986 11.6197C0.386124 11.6197 0.25641 11.5684 0.153846 11.4659C0.0512821 11.3633 0 11.2336 0 11.0767V9.91834C0 9.49602 0.108597 9.11292 0.325792 8.76902C0.542986 8.42513 0.844646 8.16872 1.23077 7.99979C2.11161 7.61367 2.90498 7.33614 3.61086 7.16721C4.31674 6.99828 5.04374 6.91382 5.79186 6.91382C6.53997 6.91382 7.26395 6.99828 7.9638 7.16721C8.66365 7.33614 9.454 7.61367 10.3348 7.99979C10.721 8.16872 11.0256 8.42513 11.2489 8.76902C11.4721 9.11292 11.5837 9.49602 11.5837 9.91834V11.0767C11.5837 11.2336 11.5324 11.3633 11.4299 11.4659C11.3273 11.5684 11.1976 11.6197 11.0407 11.6197H0.542986ZM12.2715 11.6197C12.3922 11.5956 12.4887 11.5322 12.5611 11.4297C12.6335 11.3271 12.6697 11.1974 12.6697 11.0405V9.91834C12.6697 9.15816 12.4766 8.53373 12.0905 8.04504C11.7044 7.55635 11.1976 7.16118 10.5701 6.85952C11.4027 6.95605 12.187 7.09783 12.9231 7.28486C13.6591 7.47189 14.2564 7.68607 14.7149 7.92739C15.1131 8.15666 15.4268 8.44022 15.6561 8.77807C15.8854 9.11593 16 9.49602 16 9.91834V11.0767C16 11.2336 15.9487 11.3633 15.8462 11.4659C15.7436 11.5684 15.6139 11.6197 15.457 11.6197H12.2715ZM5.79186 5.80975C4.99548 5.80975 4.34389 5.55635 3.8371 5.04957C3.33032 4.54278 3.07692 3.8912 3.07692 3.09482C3.07692 2.29843 3.33032 1.64685 3.8371 1.14006C4.34389 0.633276 4.99548 0.379883 5.79186 0.379883C6.58824 0.379883 7.23982 0.633276 7.74661 1.14006C8.25339 1.64685 8.50679 2.29843 8.50679 3.09482C8.50679 3.8912 8.25339 4.54278 7.74661 5.04957C7.23982 5.55635 6.58824 5.80975 5.79186 5.80975ZM12.3077 3.09482C12.3077 3.8912 12.0543 4.54278 11.5475 5.04957C11.0407 5.55635 10.3891 5.80975 9.59276 5.80975C9.46003 5.80975 9.31222 5.8007 9.14932 5.7826C8.98643 5.7645 8.83861 5.73132 8.70588 5.68305C8.99548 5.38139 9.21569 5.01035 9.36652 4.56993C9.51735 4.12951 9.59276 3.6378 9.59276 3.09482C9.59276 2.55183 9.51735 2.07219 9.36652 1.6559C9.21569 1.23961 8.99548 0.856504 8.70588 0.50658C8.83861 0.470381 8.98643 0.440215 9.14932 0.416082C9.31222 0.391949 9.46003 0.379883 9.59276 0.379883C10.3891 0.379883 11.0407 0.633276 11.5475 1.14006C12.0543 1.64685 12.3077 2.29843 12.3077 3.09482ZM1.08597 10.5337H10.4977V9.91834C10.4977 9.72528 10.4404 9.53825 10.3258 9.35726C10.2112 9.17626 10.0694 9.04957 9.90045 8.97717C9.03167 8.59104 8.30166 8.33162 7.71041 8.19889C7.11916 8.06616 6.47964 7.99979 5.79186 7.99979C5.10407 7.99979 4.46154 8.06616 3.86425 8.19889C3.26697 8.33162 2.53394 8.59104 1.66516 8.97717C1.49623 9.04957 1.35747 9.17626 1.24887 9.35726C1.14027 9.53825 1.08597 9.72528 1.08597 9.91834V10.5337ZM5.79186 4.72377C6.26244 4.72377 6.65158 4.56993 6.95928 4.26224C7.26697 3.95454 7.42081 3.5654 7.42081 3.09482C7.42081 2.62423 7.26697 2.23509 6.95928 1.92739C6.65158 1.6197 6.26244 1.46586 5.79186 1.46586C5.32127 1.46586 4.93213 1.6197 4.62443 1.92739C4.31674 2.23509 4.1629 2.62423 4.1629 3.09482C4.1629 3.5654 4.31674 3.95454 4.62443 4.26224C4.93213 4.56993 5.32127 4.72377 5.79186 4.72377Z" fill="#49454F"/>
</svg>
