<svg width="25" height="25" viewBox="0 0 25 25" fill="none" xmlns="http://www.w3.org/2000/svg">
<rect x="0.5" y="0.5" width="24" height="24" rx="5.5" fill="white"/>
<path d="M12.5 13.3046L8.47701 17.3276C8.36207 17.4425 8.22797 17.5 8.07471 17.5C7.92146 17.5 7.78736 17.4425 7.67241 17.3276C7.55747 17.2126 7.5 17.0785 7.5 16.9253C7.5 16.772 7.55747 16.6379 7.67241 16.523L11.6954 12.5L7.67241 8.47701C7.55747 8.36207 7.5 8.22797 7.5 8.07471C7.5 7.92146 7.55747 7.78736 7.67241 7.67241C7.78736 7.55747 7.92146 7.5 8.07471 7.5C8.22797 7.5 8.36207 7.55747 8.47701 7.67241L12.5 11.6954L16.523 7.67241C16.6379 7.55747 16.772 7.5 16.9253 7.5C17.0785 7.5 17.2126 7.55747 17.3276 7.67241C17.4425 7.78736 17.5 7.92146 17.5 8.07471C17.5 8.22797 17.4425 8.36207 17.3276 8.47701L13.3046 12.5L17.3276 16.523C17.4425 16.6379 17.5 16.772 17.5 16.9253C17.5 17.0785 17.4425 17.2126 17.3276 17.3276C17.2126 17.4425 17.0785 17.5 16.9253 17.5C16.772 17.5 16.6379 17.4425 16.523 17.3276L12.5 13.3046Z" fill="#1D1B20"/>
<rect x="0.5" y="0.5" width="24" height="24" rx="5.5" stroke="#758090"/>
</svg>
