<svg width="12" height="13" viewBox="0 0 12 13" fill="none" xmlns="http://www.w3.org/2000/svg">
<path id="Vector" d="M6 7.46552L1.17241 12.2931C1.03448 12.431 0.873563 12.5 0.689655 12.5C0.505747 12.5 0.344828 12.431 0.206897 12.2931C0.0689655 12.1552 0 11.9943 0 11.8103C0 11.6264 0.0689655 11.4655 0.206897 11.3276L5.03448 6.5L0.206897 1.67241C0.0689655 1.53448 0 1.37356 0 1.18966C0 1.00575 0.0689655 0.844828 0.206897 0.706897C0.344828 0.568966 0.505747 0.5 0.689655 0.5C0.873563 0.5 1.03448 0.568966 1.17241 0.706897L6 5.53448L10.8276 0.706897C10.9655 0.568966 11.1264 0.5 11.3103 0.5C11.4943 0.5 11.6552 0.568966 11.7931 0.706897C11.931 0.844828 12 1.00575 12 1.18966C12 1.37356 11.931 1.53448 11.7931 1.67241L6.96552 6.5L11.7931 11.3276C11.931 11.4655 12 11.6264 12 11.8103C12 11.9943 11.931 12.1552 11.7931 12.2931C11.6552 12.431 11.4943 12.5 11.3103 12.5C11.1264 12.5 10.9655 12.431 10.8276 12.2931L6 7.46552Z" fill="#1D1B20"/>
</svg>
