<svg width="15" height="17" viewBox="0 0 15 17" fill="none" xmlns="http://www.w3.org/2000/svg">
<path d="M0.745625 17C0.531875 17 0.354167 16.9281 0.2125 16.7844C0.0708333 16.6406 0 16.4625 0 16.25V0.75C0 0.5375 0.071875 0.359375 0.215625 0.215625C0.359375 0.071875 0.5375 0 0.75 0H7.975C8.15 0 8.30625 0.0541667 8.44375 0.1625C8.58125 0.270833 8.66667 0.416667 8.7 0.6L9.05 2.15H14.25C14.4625 2.15 14.6406 2.22188 14.7844 2.36563C14.9281 2.50938 15 2.6875 15 2.9V10.65C15 10.8625 14.9281 11.0406 14.7844 11.1844C14.6406 11.3281 14.4625 11.4 14.25 11.4H9.2C9.025 11.4 8.86875 11.35 8.73125 11.25C8.59375 11.15 8.50833 11.0083 8.475 10.825L8.125 9.275H1.5V16.25C1.5 16.4625 1.42771 16.6406 1.28312 16.7844C1.13852 16.9281 0.959358 17 0.745625 17ZM9.875 9.9H13.5V3.65H7.775L7.3 1.5H1.5V7.775H9.4L9.875 9.9Z" fill="#49454F"/>
</svg>
