<svg width="16" height="16" viewBox="0 0 16 16" fill="none" xmlns="http://www.w3.org/2000/svg">
<path d="M8.66667 5.33333V0.666667C8.66667 0.477778 8.73056 0.319444 8.85833 0.191667C8.98611 0.0638889 9.14444 0 9.33333 0H15.3333C15.5222 0 15.6806 0.0638889 15.8083 0.191667C15.9361 0.319444 16 0.477778 16 0.666667V5.33333C16 5.52222 15.9361 5.68056 15.8083 5.80833C15.6806 5.93611 15.5222 6 15.3333 6H9.33333C9.14444 6 8.98611 5.93611 8.85833 5.80833C8.73056 5.68056 8.66667 5.52222 8.66667 5.33333ZM0 8V0.666667C0 0.477778 0.0638889 0.319444 0.191667 0.191667C0.319444 0.0638889 0.477778 0 0.666667 0H6.66667C6.85556 0 7.01389 0.0638889 7.14167 0.191667C7.26944 0.319444 7.33333 0.477778 7.33333 0.666667V8C7.33333 8.18889 7.26944 8.34722 7.14167 8.475C7.01389 8.60278 6.85556 8.66667 6.66667 8.66667H0.666667C0.477778 8.66667 0.319444 8.60278 0.191667 8.475C0.0638889 8.34722 0 8.18889 0 8ZM8.66667 15.3333V8C8.66667 7.81111 8.73056 7.65278 8.85833 7.525C8.98611 7.39722 9.14444 7.33333 9.33333 7.33333H15.3333C15.5222 7.33333 15.6806 7.39722 15.8083 7.525C15.9361 7.65278 16 7.81111 16 8V15.3333C16 15.5222 15.9361 15.6806 15.8083 15.8083C15.6806 15.9361 15.5222 16 15.3333 16H9.33333C9.14444 16 8.98611 15.9361 8.85833 15.8083C8.73056 15.6806 8.66667 15.5222 8.66667 15.3333ZM0 15.3333V10.6667C0 10.4778 0.0638889 10.3194 0.191667 10.1917C0.319444 10.0639 0.477778 10 0.666667 10H6.66667C6.85556 10 7.01389 10.0639 7.14167 10.1917C7.26944 10.3194 7.33333 10.4778 7.33333 10.6667V15.3333C7.33333 15.5222 7.26944 15.6806 7.14167 15.8083C7.01389 15.9361 6.85556 16 6.66667 16H0.666667C0.477778 16 0.319444 15.9361 0.191667 15.8083C0.0638889 15.6806 0 15.5222 0 15.3333ZM1.33333 7.33333H6V1.33333H1.33333V7.33333ZM10 14.6667H14.6667V8.66667H10V14.6667ZM10 4.66667H14.6667V1.33333H10V4.66667ZM1.33333 14.6667H6V11.3333H1.33333V14.6667Z" fill="#663CEF"/>
</svg>
