<svg width="48" height="48" viewBox="0 0 48 48" fill="none" xmlns="http://www.w3.org/2000/svg">
<g id="delete_FILL0_wght400_GRAD0_opsz48 1">
<path id="Vector" d="M13.05 42C12.25 42 11.55 41.7 10.95 41.1C10.35 40.5 10.05 39.8 10.05 39V10.5H9.5C9.075 10.5 8.71875 10.3554 8.43125 10.0663C8.14375 9.77705 8 9.41872 8 8.99125C8 8.56375 8.14375 8.20833 8.43125 7.925C8.71875 7.64167 9.075 7.5 9.5 7.5H17.4C17.4 7.06667 17.5437 6.70833 17.8313 6.425C18.1188 6.14167 18.475 6 18.9 6H29.1C29.525 6 29.8813 6.14375 30.1688 6.43125C30.4563 6.71875 30.6 7.075 30.6 7.5H38.5C38.925 7.5 39.2812 7.64458 39.5688 7.93375C39.8563 8.22295 40 8.58128 40 9.00875C40 9.43625 39.8563 9.79167 39.5688 10.075C39.2812 10.3583 38.925 10.5 38.5 10.5H37.95V39C37.95 39.8 37.65 40.5 37.05 41.1C36.45 41.7 35.75 42 34.95 42H13.05ZM13.05 10.5V39H34.95V10.5H13.05ZM18.35 33.2C18.35 33.625 18.4946 33.9813 18.7837 34.2688C19.0729 34.5562 19.4313 34.7 19.8587 34.7C20.2862 34.7 20.6417 34.5562 20.925 34.2688C21.2083 33.9813 21.35 33.625 21.35 33.2V16.25C21.35 15.825 21.2054 15.4688 20.9163 15.1813C20.6271 14.8938 20.2687 14.75 19.8413 14.75C19.4138 14.75 19.0583 14.8938 18.775 15.1813C18.4917 15.4688 18.35 15.825 18.35 16.25V33.2ZM26.65 33.2C26.65 33.625 26.7946 33.9813 27.0837 34.2688C27.3729 34.5562 27.7313 34.7 28.1588 34.7C28.5863 34.7 28.9417 34.5562 29.225 34.2688C29.5083 33.9813 29.65 33.625 29.65 33.2V16.25C29.65 15.825 29.5054 15.4688 29.2163 15.1813C28.9271 14.8938 28.5687 14.75 28.1413 14.75C27.7138 14.75 27.3583 14.8938 27.075 15.1813C26.7917 15.4688 26.65 15.825 26.65 16.25V33.2Z" fill="#FF8080"/>
</g>
</svg>
