<svg width="17" height="16" viewBox="0 0 17 16" fill="none" xmlns="http://www.w3.org/2000/svg">
<path d="M8.49668 11.875C8.39889 11.875 8.30833 11.8583 8.225 11.825C8.14167 11.7917 8.05833 11.7333 7.975 11.65L4.2 7.875C4.05 7.725 3.97917 7.54583 3.9875 7.3375C3.99583 7.12917 4.075 6.95 4.225 6.8C4.375 6.65 4.55417 6.575 4.7625 6.575C4.97083 6.575 5.15 6.65 5.3 6.8L7.75 9.275V0.75C7.75 0.5375 7.82229 0.359375 7.96687 0.215625C8.11147 0.071875 8.29064 0 8.50437 0C8.71812 0 8.89583 0.071875 9.0375 0.215625C9.17917 0.359375 9.25 0.5375 9.25 0.75V9.275L11.725 6.8C11.875 6.65 12.0542 6.575 12.2625 6.575C12.4708 6.575 12.65 6.65 12.8 6.8C12.95 6.95 13.025 7.12917 13.025 7.3375C13.025 7.54583 12.95 7.725 12.8 7.875L9.025 11.65C8.94167 11.7333 8.85723 11.7917 8.77168 11.825C8.68611 11.8583 8.59444 11.875 8.49668 11.875ZM2 16C1.6 16 1.25 15.85 0.95 15.55C0.65 15.25 0.5 14.9 0.5 14.5V11.675C0.5 11.4625 0.572292 11.2844 0.716875 11.1406C0.861475 10.9969 1.04064 10.925 1.25438 10.925C1.46813 10.925 1.64583 10.9969 1.7875 11.1406C1.92917 11.2844 2 11.4625 2 11.675V14.5H15V11.675C15 11.4625 15.0723 11.2844 15.2169 11.1406C15.3615 10.9969 15.5406 10.925 15.7544 10.925C15.9681 10.925 16.1458 10.9969 16.2875 11.1406C16.4292 11.2844 16.5 11.4625 16.5 11.675V14.5C16.5 14.9 16.35 15.25 16.05 15.55C15.75 15.85 15.4 16 15 16H2Z" fill="#663CEF"/>
</svg>
