<svg width="15" height="16" viewBox="0 0 15 16" fill="none" xmlns="http://www.w3.org/2000/svg">
<path d="M1.2 16C0.87 16 0.5875 15.8825 0.3525 15.6475C0.1175 15.4125 0 15.13 0 14.8V2.8C0 2.47 0.1175 2.1875 0.3525 1.9525C0.5875 1.7175 0.87 1.6 1.2 1.6H5.3C5.36667 1.13333 5.58 0.75 5.94 0.45C6.3 0.15 6.72 0 7.2 0C7.68 0 8.1 0.15 8.46 0.45C8.82 0.75 9.03333 1.13333 9.1 1.6H13.2C13.53 1.6 13.8125 1.7175 14.0475 1.9525C14.2825 2.1875 14.4 2.47 14.4 2.8V14.8C14.4 15.13 14.2825 15.4125 14.0475 15.6475C13.8125 15.8825 13.53 16 13.2 16H1.2ZM1.2 14.8H13.2V2.8H1.2V14.8ZM3.8 12.8H8.06C8.23 12.8 8.3725 12.7422 8.4875 12.6265C8.6025 12.5108 8.66 12.3675 8.66 12.1965C8.66 12.0255 8.6025 11.8833 8.4875 11.77C8.3725 11.6567 8.23 11.6 8.06 11.6H3.8C3.63 11.6 3.4875 11.6578 3.3725 11.7735C3.2575 11.8892 3.2 12.0325 3.2 12.2035C3.2 12.3745 3.2575 12.5167 3.3725 12.63C3.4875 12.7433 3.63 12.8 3.8 12.8ZM3.8 9.4H10.6C10.77 9.4 10.9125 9.34217 11.0275 9.2265C11.1425 9.11082 11.2 8.96749 11.2 8.7965C11.2 8.6255 11.1425 8.48333 11.0275 8.37C10.9125 8.25667 10.77 8.2 10.6 8.2H3.8C3.63 8.2 3.4875 8.25783 3.3725 8.3735C3.2575 8.48918 3.2 8.63251 3.2 8.8035C3.2 8.9745 3.2575 9.11667 3.3725 9.23C3.4875 9.34333 3.63 9.4 3.8 9.4ZM3.8 6H10.6C10.77 6 10.9125 5.94217 11.0275 5.8265C11.1425 5.71082 11.2 5.56749 11.2 5.3965C11.2 5.2255 11.1425 5.08333 11.0275 4.97C10.9125 4.85667 10.77 4.8 10.6 4.8H3.8C3.63 4.8 3.4875 4.85783 3.3725 4.9735C3.2575 5.08918 3.2 5.23251 3.2 5.4035C3.2 5.5745 3.2575 5.71667 3.3725 5.83C3.4875 5.94333 3.63 6 3.8 6ZM7.2 2.46C7.38667 2.46 7.55 2.39 7.69 2.25C7.83 2.11 7.9 1.94667 7.9 1.76C7.9 1.57333 7.83 1.41 7.69 1.27C7.55 1.13 7.38667 1.06 7.2 1.06C7.01333 1.06 6.85 1.13 6.71 1.27C6.57 1.41 6.5 1.57333 6.5 1.76C6.5 1.94667 6.57 2.11 6.71 2.25C6.85 2.39 7.01333 2.46 7.2 2.46Z" fill="#49454F"/>
</svg>
