<svg width="46" height="46" viewBox="0 0 46 46" fill="none" xmlns="http://www.w3.org/2000/svg">
<g id="filter_list_FILL0_wght400_GRAD0_opsz48 1">
<path id="Vector" d="M20.9792 32C20.6781 32 20.4258 31.8976 20.2221 31.6928C20.0185 31.4879 19.9167 31.2341 19.9167 30.9313C19.9167 30.6285 20.0185 30.3767 20.2221 30.176C20.4258 29.9753 20.6781 29.875 20.9792 29.875H24.5208C24.8219 29.875 25.0742 29.9774 25.2779 30.1822C25.4815 30.3871 25.5833 30.6409 25.5833 30.9437C25.5833 31.2465 25.4815 31.4983 25.2779 31.699C25.0742 31.8997 24.8219 32 24.5208 32H20.9792ZM11.0625 17.125C10.7615 17.125 10.5091 17.0226 10.3055 16.8178C10.1018 16.6129 10 16.3591 10 16.0563C10 15.7535 10.1018 15.5017 10.3055 15.301C10.5091 15.1003 10.7615 15 11.0625 15H34.4375C34.7385 15 34.9909 15.1024 35.1945 15.3072C35.3982 15.5121 35.5 15.7659 35.5 16.0687C35.5 16.3715 35.3982 16.6233 35.1945 16.824C34.9909 17.0247 34.7385 17.125 34.4375 17.125H11.0625ZM15.3125 24.5625C15.0115 24.5625 14.7591 24.4601 14.5555 24.2553C14.3518 24.0504 14.25 23.7966 14.25 23.4938C14.25 23.191 14.3518 22.9392 14.5555 22.7385C14.7591 22.5378 15.0115 22.4375 15.3125 22.4375H30.1875C30.4885 22.4375 30.7409 22.5399 30.9445 22.7447C31.1482 22.9496 31.25 23.2034 31.25 23.5062C31.25 23.809 31.1482 24.0608 30.9445 24.2615C30.7409 24.4622 30.4885 24.5625 30.1875 24.5625H15.3125Z" fill="#1D1B20"/>
</g>
</svg>
