<svg width="17" height="18" viewBox="0 0 17 18" fill="none" xmlns="http://www.w3.org/2000/svg">
    <g clip-path="url(#clip0_11_1461)">
        <path
            d="M16.9906 9.15906C16.9906 8.46255 16.9328 7.95431 16.8076 7.42725H8.66895V10.5708H13.4462C13.3499 11.3521 12.8298 12.5286 11.674 13.3191L11.6578 13.4244L14.2311 15.3724L14.4094 15.3898C16.0467 13.9121 16.9906 11.7379 16.9906 9.15906Z"
            fill="#4285F4" />
        <path
            d="M8.66964 17.4415C11.0101 17.4415 12.9749 16.6885 14.4101 15.3897L11.6747 13.319C10.9427 13.8178 9.96024 14.1661 8.66964 14.1661C6.37731 14.1661 4.43175 12.6884 3.7382 10.646L3.63655 10.6544L0.960777 12.678L0.925781 12.7731C2.35125 15.5402 5.27927 17.4415 8.66964 17.4415Z"
            fill="#34A853" />
        <path
            d="M3.738 10.646C3.55501 10.1189 3.4491 9.55418 3.4491 8.97066C3.4491 8.38707 3.55501 7.82237 3.72838 7.29531L3.72352 7.18305L1.01423 5.12695L0.925585 5.16816C0.338086 6.31644 0.000976562 7.60592 0.000976562 8.97066C0.000976562 10.3354 0.338086 11.6248 0.925585 12.7731L3.738 10.646Z"
            fill="#FBBC05" />
        <path
            d="M8.66964 3.77535C10.2973 3.77535 11.3953 4.46243 12.0214 5.0366L14.4678 2.70241C12.9653 1.33767 11.0101 0.5 8.66964 0.5C5.27926 0.5 2.35124 2.40121 0.925781 5.16832L3.72857 7.29545C4.43174 5.25305 6.37731 3.77535 8.66964 3.77535Z"
            fill="#EB4335" />
    </g>
    <defs>
        <clipPath id="clip0_11_1461">
            <rect width="17" height="17" fill="white" transform="translate(0 0.5)" />
        </clipPath>
    </defs>
</svg>
