<svg width="18" height="17" viewBox="0 0 18 17" fill="none" xmlns="http://www.w3.org/2000/svg">
<path d="M3.69711 17C3.44919 17 3.24554 16.9026 3.08617 16.7078C2.92679 16.513 2.88252 16.2917 2.95336 16.0438L3.85648 12.4844H0.801794C0.553877 12.4844 0.345804 12.3826 0.177575 12.1789C0.00934607 11.9753 -0.0393519 11.7495 0.0314815 11.5016C0.0668981 11.3245 0.15544 11.1784 0.297106 11.0633C0.438773 10.9482 0.607002 10.8906 0.801794 10.8906H4.25492L5.45023 6.10938H1.86429C1.61638 6.10938 1.4083 6.00755 1.24008 5.80391C1.07185 5.60026 1.02315 5.37448 1.09398 5.12656C1.1294 4.94948 1.21794 4.80339 1.35961 4.68828C1.50127 4.57318 1.6695 4.51562 1.86429 4.51562H5.84867L6.83148 0.584375C6.8669 0.407292 6.95101 0.265625 7.08382 0.159375C7.21664 0.053125 7.37159 0 7.54867 0C7.79659 0 7.9958 0.0973958 8.14633 0.292188C8.29685 0.486979 8.34554 0.708333 8.29242 0.95625L7.41586 4.51562H12.2237L13.2065 0.584375C13.2419 0.407292 13.326 0.265625 13.4588 0.159375C13.5916 0.053125 13.7466 0 13.9237 0C14.1716 0 14.3708 0.0973958 14.5213 0.292188C14.6718 0.486979 14.7205 0.708333 14.6674 0.95625L13.7909 4.51562H16.8455C17.0935 4.51562 17.3015 4.61745 17.4698 4.82109C17.638 5.02474 17.6867 5.25052 17.6159 5.49844C17.5804 5.67552 17.4919 5.82161 17.3502 5.93672C17.2086 6.05182 17.0403 6.10938 16.8455 6.10938H13.3924L12.1971 10.8906H15.783C16.031 10.8906 16.239 10.9924 16.4073 11.1961C16.5755 11.3997 16.6242 11.6255 16.5534 11.8734C16.5179 12.0505 16.4294 12.1966 16.2877 12.3117C16.1461 12.4268 15.9778 12.4844 15.783 12.4844H11.7987L10.8159 16.4156C10.7804 16.5573 10.7052 16.6901 10.5901 16.8141C10.475 16.938 10.3023 17 10.0721 17C9.82419 17 9.62054 16.9026 9.46117 16.7078C9.30179 16.513 9.25752 16.2917 9.32836 16.0438L10.2315 12.4844H5.42367L4.44086 16.4156C4.40544 16.5573 4.33018 16.6901 4.21508 16.8141C4.09997 16.938 3.92731 17 3.69711 17ZM5.82211 10.8906H10.6299L11.8252 6.10938H7.01742L5.82211 10.8906Z" fill="#49454F"/>
</svg>
