<svg width="37" height="37" viewBox="0 0 37 37" fill="none" xmlns="http://www.w3.org/2000/svg">
<g id="inventory_2_FILL0_wght400_GRAD0_opsz48 1">
<path id="Vector" d="M12.1251 27C11.7851 27 11.4876 26.8619 11.2326 26.5856C10.9776 26.3094 10.8501 26.0083 10.8501 25.6825V15.2275C10.6518 15.1992 10.4605 15.0575 10.2764 14.8025C10.0922 14.5475 10.0001 14.2713 10.0001 13.9738V11.275C10.0001 10.9492 10.1276 10.6552 10.3826 10.3931C10.6376 10.131 10.9351 10 11.2751 10H25.7251C26.051 10 26.3449 10.131 26.607 10.3931C26.8691 10.6552 27.0001 10.9492 27.0001 11.275V13.9738C27.0001 14.2713 26.908 14.5475 26.7239 14.8025C26.5397 15.0575 26.3485 15.1992 26.1501 15.2275V25.6825C26.1501 26.0083 26.0191 26.3094 25.757 26.5856C25.4949 26.8619 25.201 27 24.8751 27H12.1251ZM12.1251 15.2488V25.725H24.8751V15.2488H12.1251ZM25.7251 13.9738V11.275H11.2751V13.9738H25.7251ZM16.5876 19.7113H20.4126C20.5932 19.7113 20.7447 19.6498 20.8668 19.5269C20.989 19.404 21.0501 19.2517 21.0501 19.07C21.0501 18.8883 20.989 18.7373 20.8668 18.6169C20.7447 18.4965 20.5932 18.4362 20.4126 18.4362H16.5876C16.407 18.4362 16.2556 18.4977 16.1334 18.6206C16.0112 18.7435 15.9501 18.8958 15.9501 19.0775C15.9501 19.2592 16.0112 19.4102 16.1334 19.5306C16.2556 19.651 16.407 19.7113 16.5876 19.7113Z" fill="#49454F"/>
</g>
</svg>
