<svg width="15" height="16" viewBox="0 0 15 16" fill="none" xmlns="http://www.w3.org/2000/svg">
<path d="M0 15.9594V0H0.0507614C0.0846024 0 0.135364 0.0338409 0.203046 0.101523L1.01523 0.913706C1.08291 0.981387 1.15059 1.01523 1.21827 1.01523C1.28596 1.01523 1.35364 0.981387 1.42132 0.913706L2.2335 0.101523C2.30118 0.0338409 2.36887 0 2.43655 0C2.50423 0 2.57191 0.0338409 2.63959 0.101523L3.45178 0.913706C3.51946 0.981387 3.58714 1.01523 3.65482 1.01523C3.7225 1.01523 3.79019 0.981387 3.85787 0.913706L4.67005 0.101523C4.73773 0.0338409 4.80541 0 4.8731 0C4.94078 0 5.00846 0.0338409 5.07614 0.101523L5.88832 0.913706C5.95601 0.981387 6.02369 1.01523 6.09137 1.01523C6.15905 1.01523 6.22673 0.981387 6.29442 0.913706L7.1066 0.101523C7.17428 0.0338409 7.24196 0 7.30964 0C7.37733 0 7.44501 0.0338409 7.51269 0.101523L8.32487 0.913706C8.39256 0.981387 8.46024 1.01523 8.52792 1.01523C8.5956 1.01523 8.66328 0.981387 8.73096 0.913706L9.54315 0.101523C9.61083 0.0338409 9.67851 0 9.74619 0C9.81387 0 9.88156 0.0338409 9.94924 0.101523L10.7614 0.913706C10.8291 0.981387 10.8968 1.01523 10.9645 1.01523C11.0321 1.01523 11.0998 0.981387 11.1675 0.913706L11.9797 0.101523C12.0474 0.0338409 12.1151 0 12.1827 0C12.2504 0 12.3181 0.0338409 12.3858 0.101523L13.198 0.913706C13.2657 0.981387 13.3333 1.01523 13.401 1.01523C13.4687 1.01523 13.5364 0.981387 13.6041 0.913706L14.4162 0.101523C14.4839 0.0338409 14.5347 0 14.5685 0H14.6193V15.9594L14.5685 15.9797C14.5347 15.9932 14.4839 15.9662 14.4162 15.8985L13.6041 15.0863C13.5364 15.0186 13.4687 14.9848 13.401 14.9848C13.3333 14.9848 13.2657 15.0186 13.198 15.0863L12.3858 15.8985C12.3181 15.9662 12.2504 16 12.1827 16C12.1151 16 12.0474 15.9662 11.9797 15.8985L11.1675 15.0863C11.0998 15.0186 11.0321 14.9848 10.9645 14.9848C10.8968 14.9848 10.8291 15.0186 10.7614 15.0863L9.94924 15.8985C9.88156 15.9662 9.81387 16 9.74619 16C9.67851 16 9.61083 15.9662 9.54315 15.8985L8.73096 15.0863C8.66328 15.0186 8.5956 14.9848 8.52792 14.9848C8.46024 14.9848 8.39256 15.0186 8.32487 15.0863L7.51269 15.8985C7.44501 15.9662 7.37733 16 7.30964 16C7.24196 16 7.17428 15.9662 7.1066 15.8985L6.29442 15.0863C6.22673 15.0186 6.15905 14.9848 6.09137 14.9848C6.02369 14.9848 5.95601 15.0186 5.88832 15.0863L5.07614 15.8985C5.00846 15.9662 4.94078 16 4.8731 16C4.80541 16 4.73773 15.9662 4.67005 15.8985L3.85787 15.0863C3.79019 15.0186 3.7225 14.9848 3.65482 14.9848C3.58714 14.9848 3.51946 15.0186 3.45178 15.0863L2.63959 15.8985C2.57191 15.9662 2.50423 16 2.43655 16C2.36887 16 2.30118 15.9662 2.2335 15.8985L1.42132 15.0863C1.35364 15.0186 1.28596 14.9848 1.21827 14.9848C1.15059 14.9848 1.08291 15.0186 1.01523 15.0863L0.203046 15.8985C0.135364 15.9662 0.0846024 15.9932 0.0507614 15.9797L0 15.9594ZM2.98477 11.736H11.7157C11.8917 11.736 12.0372 11.6785 12.1523 11.5635C12.2673 11.4484 12.3249 11.3029 12.3249 11.1269C12.3249 10.9509 12.2673 10.8054 12.1523 10.6904C12.0372 10.5753 11.8917 10.5178 11.7157 10.5178H2.98477C2.8088 10.5178 2.66328 10.5753 2.54822 10.6904C2.43316 10.8054 2.37563 10.9509 2.37563 11.1269C2.37563 11.3029 2.43316 11.4484 2.54822 11.5635C2.66328 11.6785 2.8088 11.736 2.98477 11.736ZM2.98477 8.60914H11.7157C11.8917 8.60914 12.0372 8.55161 12.1523 8.43655C12.2673 8.32149 12.3249 8.17597 12.3249 8C12.3249 7.82403 12.2673 7.67851 12.1523 7.56345C12.0372 7.44839 11.8917 7.39086 11.7157 7.39086H2.98477C2.8088 7.39086 2.66328 7.44839 2.54822 7.56345C2.43316 7.67851 2.37563 7.82403 2.37563 8C2.37563 8.17597 2.43316 8.32149 2.54822 8.43655C2.66328 8.55161 2.8088 8.60914 2.98477 8.60914ZM2.98477 5.46193H11.7157C11.8917 5.46193 12.0372 5.4044 12.1523 5.28934C12.2673 5.17428 12.3249 5.02876 12.3249 4.85279C12.3249 4.67682 12.2673 4.5313 12.1523 4.41624C12.0372 4.30118 11.8917 4.24365 11.7157 4.24365H2.98477C2.8088 4.24365 2.66328 4.30118 2.54822 4.41624C2.43316 4.5313 2.37563 4.67682 2.37563 4.85279C2.37563 5.02876 2.43316 5.17428 2.54822 5.28934C2.66328 5.4044 2.8088 5.46193 2.98477 5.46193ZM1.21827 14.0508H13.401V1.94924H1.21827V14.0508Z" fill="#49454F"/>
</svg>
