<svg width="40" height="40" viewBox="0 0 40 40" fill="none" xmlns="http://www.w3.org/2000/svg">
<rect width="40" height="40" rx="7" fill="#1D1B20"/>
<path d="M11 29.7999V10.1499H11.0625C11.1042 10.1499 11.1667 10.1916 11.25 10.2749L12.25 11.2749C12.3333 11.3582 12.4167 11.3999 12.5 11.3999C12.5833 11.3999 12.6667 11.3582 12.75 11.2749L13.75 10.2749C13.8333 10.1916 13.9167 10.1499 14 10.1499C14.0833 10.1499 14.1667 10.1916 14.25 10.2749L15.25 11.2749C15.3333 11.3582 15.4167 11.3999 15.5 11.3999C15.5833 11.3999 15.6667 11.3582 15.75 11.2749L16.75 10.2749C16.8333 10.1916 16.9167 10.1499 17 10.1499C17.0833 10.1499 17.1667 10.1916 17.25 10.2749L18.25 11.2749C18.3333 11.3582 18.4167 11.3999 18.5 11.3999C18.5833 11.3999 18.6667 11.3582 18.75 11.2749L19.75 10.2749C19.8333 10.1916 19.9167 10.1499 20 10.1499C20.0833 10.1499 20.1667 10.1916 20.25 10.2749L21.25 11.2749C21.3333 11.3582 21.4167 11.3999 21.5 11.3999C21.5833 11.3999 21.6667 11.3582 21.75 11.2749L22.75 10.2749C22.8333 10.1916 22.9167 10.1499 23 10.1499C23.0833 10.1499 23.1667 10.1916 23.25 10.2749L24.25 11.2749C24.3333 11.3582 24.4167 11.3999 24.5 11.3999C24.5833 11.3999 24.6667 11.3582 24.75 11.2749L25.75 10.2749C25.8333 10.1916 25.9167 10.1499 26 10.1499C26.0833 10.1499 26.1667 10.1916 26.25 10.2749L27.25 11.2749C27.3333 11.3582 27.4167 11.3999 27.5 11.3999C27.5833 11.3999 27.6667 11.3582 27.75 11.2749L28.75 10.2749C28.8333 10.1916 28.8958 10.1499 28.9375 10.1499H29V29.7999L28.9375 29.8249C28.8958 29.8416 28.8333 29.8082 28.75 29.7249L27.75 28.7249C27.6667 28.6416 27.5833 28.5999 27.5 28.5999C27.4167 28.5999 27.3333 28.6416 27.25 28.7249L26.25 29.7249C26.1667 29.8082 26.0833 29.8499 26 29.8499C25.9167 29.8499 25.8333 29.8082 25.75 29.7249L24.75 28.7249C24.6667 28.6416 24.5833 28.5999 24.5 28.5999C24.4167 28.5999 24.3333 28.6416 24.25 28.7249L23.25 29.7249C23.1667 29.8082 23.0833 29.8499 23 29.8499C22.9167 29.8499 22.8333 29.8082 22.75 29.7249L21.75 28.7249C21.6667 28.6416 21.5833 28.5999 21.5 28.5999C21.4167 28.5999 21.3333 28.6416 21.25 28.7249L20.25 29.7249C20.1667 29.8082 20.0833 29.8499 20 29.8499C19.9167 29.8499 19.8333 29.8082 19.75 29.7249L18.75 28.7249C18.6667 28.6416 18.5833 28.5999 18.5 28.5999C18.4167 28.5999 18.3333 28.6416 18.25 28.7249L17.25 29.7249C17.1667 29.8082 17.0833 29.8499 17 29.8499C16.9167 29.8499 16.8333 29.8082 16.75 29.7249L15.75 28.7249C15.6667 28.6416 15.5833 28.5999 15.5 28.5999C15.4167 28.5999 15.3333 28.6416 15.25 28.7249L14.25 29.7249C14.1667 29.8082 14.0833 29.8499 14 29.8499C13.9167 29.8499 13.8333 29.8082 13.75 29.7249L12.75 28.7249C12.6667 28.6416 12.5833 28.5999 12.5 28.5999C12.4167 28.5999 12.3333 28.6416 12.25 28.7249L11.25 29.7249C11.1667 29.8082 11.1042 29.8416 11.0625 29.8249L11 29.7999ZM14.675 24.5999H25.425C25.6417 24.5999 25.8208 24.5291 25.9625 24.3874C26.1042 24.2457 26.175 24.0666 26.175 23.8499C26.175 23.6332 26.1042 23.4541 25.9625 23.3124C25.8208 23.1707 25.6417 23.0999 25.425 23.0999H14.675C14.4583 23.0999 14.2792 23.1707 14.1375 23.3124C13.9958 23.4541 13.925 23.6332 13.925 23.8499C13.925 24.0666 13.9958 24.2457 14.1375 24.3874C14.2792 24.5291 14.4583 24.5999 14.675 24.5999ZM14.675 20.7499H25.425C25.6417 20.7499 25.8208 20.6791 25.9625 20.5374C26.1042 20.3957 26.175 20.2166 26.175 19.9999C26.175 19.7832 26.1042 19.6041 25.9625 19.4624C25.8208 19.3207 25.6417 19.2499 25.425 19.2499H14.675C14.4583 19.2499 14.2792 19.3207 14.1375 19.4624C13.9958 19.6041 13.925 19.7832 13.925 19.9999C13.925 20.2166 13.9958 20.3957 14.1375 20.5374C14.2792 20.6791 14.4583 20.7499 14.675 20.7499ZM14.675 16.8749H25.425C25.6417 16.8749 25.8208 16.8041 25.9625 16.6624C26.1042 16.5207 26.175 16.3416 26.175 16.1249C26.175 15.9082 26.1042 15.7291 25.9625 15.5874C25.8208 15.4457 25.6417 15.3749 25.425 15.3749H14.675C14.4583 15.3749 14.2792 15.4457 14.1375 15.5874C13.9958 15.7291 13.925 15.9082 13.925 16.1249C13.925 16.3416 13.9958 16.5207 14.1375 16.6624C14.2792 16.8041 14.4583 16.8749 14.675 16.8749ZM12.5 27.4499H27.5V12.5499H12.5V27.4499Z" fill="white"/>
</svg>
