<svg width="164" height="170" viewBox="0 0 164 170" fill="none" xmlns="http://www.w3.org/2000/svg">
<path d="M106.295 154.075C105.417 156.254 104.57 158.674 103.965 160.883C103.42 162.971 103.087 164.847 103.208 166.208C103.36 167.752 104.57 168.992 106.113 169.113C112.467 169.718 128.625 170.808 129.048 169.022C129.744 166.027 125.659 163.606 122.785 162.154C121.423 161.488 120.395 160.369 119.789 159.037C119.457 158.311 119.245 157.494 119.215 156.677L106.295 154.075Z" fill="#FC6054"/>
<path d="M106.294 154.075C105.416 156.254 104.569 158.674 103.964 160.883C108.714 163.909 115.885 161.065 119.758 159.068C119.425 158.341 119.214 157.525 119.183 156.708L106.294 154.075Z" fill="#E64B38"/>
<path d="M118.67 168.236C114.404 168.236 109.139 167.873 104.6 166.511C104.449 166.451 104.358 166.299 104.389 166.148C104.449 165.997 104.6 165.906 104.752 165.936C114.131 168.78 126.749 167.207 126.87 167.207C127.051 167.177 127.172 167.298 127.203 167.479C127.233 167.631 127.112 167.782 126.93 167.812C126.93 167.812 123.39 168.236 118.67 168.236ZM120.849 162.305C120.758 162.305 120.667 162.275 120.607 162.184C120.516 162.063 120.546 161.851 120.667 161.761L122.029 160.792C122.15 160.702 122.361 160.732 122.452 160.853C122.543 160.974 122.513 161.186 122.392 161.277C121 162.245 121.03 162.305 120.849 162.305ZM121.756 163.213C121.666 163.092 121.696 162.88 121.817 162.789L123.178 161.821C123.299 161.73 123.511 161.761 123.602 161.882C123.693 162.003 123.663 162.215 123.542 162.305L122.18 163.274C122.029 163.364 121.847 163.334 121.756 163.213ZM119.457 161.125C119.366 161.004 119.396 160.792 119.517 160.702L120.879 159.733C121 159.643 121.212 159.673 121.302 159.794C121.393 159.915 121.363 160.127 121.242 160.218L119.88 161.186C119.759 161.307 119.548 161.277 119.457 161.125Z" fill="#112544"/>
<path d="M23.9952 146.904C22.3008 148.538 20.5459 150.414 19.0935 152.169C17.7319 153.833 16.6729 155.436 16.2493 156.707C15.7349 158.19 16.3704 159.793 17.7017 160.55C23.269 163.666 37.611 171.231 38.7003 169.778C40.546 167.328 37.7926 163.424 35.7653 160.973C34.7971 159.824 34.2827 158.371 34.2827 156.919C34.2827 156.102 34.4037 155.285 34.7063 154.529L23.9952 146.904Z" fill="#FC6054"/>
<path d="M23.9935 146.904C22.2991 148.538 20.5442 150.414 19.0918 152.169C22.2083 156.858 29.9239 157.161 34.281 156.919C34.281 156.102 34.402 155.285 34.7046 154.529L23.9935 146.904Z" fill="#E64B38"/>
<path d="M37.337 167.842C37.2159 167.812 24.9314 164.06 17.3973 157.585C17.2763 157.464 17.2461 157.283 17.3671 157.162C17.4881 157.04 17.6697 157.01 17.7907 157.131C25.234 163.516 37.3672 167.237 37.4882 167.267C37.6395 167.328 37.7303 167.479 37.7 167.631C37.6395 167.812 37.4882 167.903 37.337 167.842ZM33.7666 160.127C33.7363 159.975 33.8271 159.794 34.0086 159.764L35.6425 159.431C35.7938 159.401 35.9754 159.491 36.0056 159.673C36.0359 159.824 35.9451 160.006 35.7636 160.036L34.1297 160.369C33.9784 160.369 33.7968 160.278 33.7666 160.127ZM34.402 161.519C34.3717 161.367 34.4625 161.186 34.6441 161.155L36.278 160.823C36.4292 160.792 36.6108 160.883 36.641 161.065C36.6713 161.246 36.5805 161.398 36.399 161.428L34.7651 161.761C34.5835 161.791 34.4323 161.7 34.402 161.519ZM33.1614 158.705C33.1312 158.553 33.222 158.372 33.4035 158.342L35.0374 158.009C35.1887 157.978 35.3702 158.069 35.4005 158.251C35.4307 158.402 35.34 158.584 35.1584 158.614L33.5245 158.947C33.343 158.977 33.1917 158.856 33.1614 158.705ZM61.3008 8.6281H58.2448C58.0633 8.6281 57.9422 8.50707 57.9422 8.32552C57.9422 8.14398 58.0633 8.02295 58.2448 8.02295H61.3008C61.4823 8.02295 61.6034 8.14398 61.6034 8.32552C61.6034 8.50707 61.4521 8.6281 61.3008 8.6281Z" fill="#112544"/>
<path d="M122.392 152.532C121.878 155.255 121.515 156.919 121.515 156.919C120.516 158.674 101.787 157.101 101.787 155.528C102.362 141.276 107.233 128.81 101.545 119.824C97.8232 113.924 90.1681 113.833 82.5735 107.6C80.0621 112.411 73.7081 124.453 70.3193 128.689C64.0257 136.526 39.1239 155.709 39.1239 155.709C36.0982 158.402 16.9453 150.596 19.2448 147.358C19.2448 147.358 45.599 124.877 49.4417 114.378C55.4326 98.0083 64.056 84.7858 73.0424 77.7964L89.926 80.3985L96.8247 81.4575C96.8247 81.4575 98.0955 82.4258 100.093 84.0294C107.021 89.5967 122.725 102.91 125.267 110.535C128.202 119.4 124.268 142.759 122.392 152.532Z" fill="#663CEF"/>
<path d="M122.392 152.532C121.878 155.255 121.514 156.919 121.514 156.919C120.516 158.674 101.787 157.101 101.787 155.528C102.362 141.276 107.233 128.81 101.545 119.824C97.823 113.924 90.1678 113.833 82.5732 107.6C83.9953 109.234 92.891 72.8645 99.0938 77.2518C101.091 78.4924 100.97 82.0628 100.123 84.09C100.062 84.2715 99.9712 84.4228 99.8805 84.5741C98.8215 86.4501 97.0363 87.8117 95.3419 89.1127C93.6172 90.4441 91.8925 91.8359 90.9545 93.8026C89.5929 96.6468 90.3191 100.187 92.0741 102.819C93.829 105.452 96.4311 107.388 99.0938 109.113C101.756 110.838 104.48 112.471 106.719 114.741C109.775 117.857 111.651 122.123 111.862 126.481C112.074 130.747 110.773 134.922 110.531 139.189C110.289 143.455 111.469 148.266 115.13 150.414C117.097 151.564 119.427 151.776 121.636 152.32C121.878 152.381 122.12 152.441 122.392 152.532Z" fill="#5B31E5"/>
<path d="M73.4033 93.8327C73.4033 93.6512 73.5243 93.5301 73.7059 93.5301C78.305 93.3486 79.6666 90.5649 78.8496 87.872C78.7891 87.7207 78.8799 87.5392 79.0615 87.5089C79.2127 87.4484 79.3943 87.5392 79.4245 87.7207C80.3323 90.807 78.6984 93.9537 73.7362 94.1353C73.5244 94.1353 73.4033 94.0142 73.4033 93.8327Z" fill="#112544"/>
<path d="M72.8298 90.8067C74.2822 91.6236 76.8843 94.4073 76.5212 96.2832C76.1884 97.9474 73.556 95.0427 73.556 95.0427C73.556 95.0427 74.9176 100.429 73.8888 101.003C73.3139 101.336 72.0431 99.2182 71.8011 96.6766C71.8011 96.6766 72.4365 101.578 71.3472 101.82C70.0159 102.123 70.0461 97.2817 70.0461 97.2817C70.0461 97.2817 70.4697 101.972 69.2292 102.062C68.0189 102.153 68.5938 96.5858 68.5938 96.5858C68.5938 96.5858 68.4425 100.943 67.3835 100.822C66.506 100.701 66.5968 96.2227 66.7178 94.6796C66.8086 92.8944 67.565 87.8717 72.8298 90.8067Z" fill="#FCBBA4"/>
<path d="M79.1219 114.075C78.9706 113.984 78.9404 113.803 79.0009 113.652C88.1991 97.8875 91.3762 82.6075 91.4064 82.4562C91.4367 82.3049 91.588 82.1839 91.7695 82.2141C91.9208 82.2444 92.0418 82.3957 92.0116 82.5772C91.9813 82.7285 88.774 98.0993 79.5153 113.954C79.4548 114.105 79.2732 114.166 79.1219 114.075Z" fill="#112544"/>
<path d="M97.9125 116.526C96.2786 115.406 94.3724 114.529 92.3149 113.591C89.2589 112.199 85.8096 110.626 82.3905 107.812C82.2695 107.721 82.2392 107.509 82.3602 107.388C82.451 107.267 82.6628 107.237 82.7839 107.358C86.1424 110.111 89.5615 111.685 92.5872 113.046C94.6447 113.984 96.6115 114.892 98.2756 116.011C98.4269 116.102 98.4572 116.284 98.3664 116.435C98.2454 116.586 98.0638 116.617 97.9125 116.526Z" fill="#112544"/>
<path d="M70.8633 79.6722C70.8633 79.6722 71.2869 67.0851 75.2506 60.8521C75.2506 60.8521 72.0131 38.5524 92.5881 40.3376C107.686 41.6386 114.948 49.7174 114.948 49.7174C114.948 49.7174 110.258 86.117 105.417 88.4165C100.183 90.8976 92.225 78.3711 83.2385 81.7599C74.1916 85.1487 70.8633 79.6722 70.8633 79.6722Z" fill="#66D3D8"/>
<path d="M146.356 62.4554C135.251 78.6734 123.935 89.0214 113.678 86.2075C112.71 85.9351 111.772 85.5115 110.924 84.9064C100.213 77.7051 97.4297 48.3252 97.4297 48.3252L103.814 42.8789C122.574 48.2042 121.273 69.0213 121.273 69.0213C122.664 66.9033 124.359 64.9668 126.144 63.2421C132.226 57.3722 139.427 54.0136 139.427 54.0136L146.356 62.4554Z" fill="#66D3D8"/>
<path d="M146.354 62.4555C135.25 78.6734 123.934 89.0214 113.676 86.2075C112.708 85.9352 111.77 85.5116 110.923 84.9064C111.71 84.2408 112.738 83.7567 113.676 83.3936C116.641 82.2438 119.788 81.5176 122.693 80.2468C125.598 78.9457 128.381 77.0093 129.803 74.1651C131.226 71.3209 130.923 67.4479 128.502 65.3904C127.716 64.7248 126.899 64.3919 126.142 63.2422C132.224 57.3722 139.425 54.0137 139.425 54.0137L146.354 62.4555Z" fill="#47B6C3"/>
<path d="M157.248 80.0347C157.097 80.186 156.916 80.2767 156.704 80.307C141.938 82.0317 129.502 66.5096 121.212 40.9422C121.061 40.458 121.363 39.9437 121.878 39.8529C130.531 38.3098 137.309 32.107 139.215 30.2008C139.518 29.8982 140.002 29.868 140.365 30.1403C145.388 34.225 151.288 37.4626 158.005 39.8832C158.247 39.9739 158.428 40.1555 158.519 40.3673C164.419 55.9498 166.295 69.959 157.248 80.0347Z" fill="white"/>
<path d="M104.419 27.3573L104.479 27.327C104.6 27.2665 104.691 27.4178 104.57 27.4783C104.54 27.4783 104.54 27.5086 104.509 27.5086C104.388 27.5691 104.298 27.4178 104.419 27.3573ZM101.937 27.9019C101.816 27.9019 101.695 27.8716 101.574 27.8716C101.514 27.8716 101.484 27.7809 101.514 27.7204C101.544 27.6901 101.574 27.6901 101.605 27.6901C101.726 27.6901 101.847 27.7204 101.968 27.7204C102.058 27.7204 102.058 27.9019 101.937 27.9019Z" fill="#FF987A"/>
<path d="M101.936 27.9018C101.876 27.9018 101.846 27.8412 101.846 27.811C101.846 27.7505 101.906 27.7202 101.936 27.7202C102.269 27.7505 102.451 27.7505 102.511 27.7505C102.632 27.7505 102.632 27.932 102.511 27.932C102.36 27.932 102.148 27.932 101.936 27.9018Z" fill="#FF987A"/>
<path d="M102.602 27.932C102.481 27.932 102.481 27.7505 102.602 27.7505C102.693 27.7505 102.814 27.7505 102.905 27.7505C102.966 27.7505 102.996 27.7807 102.996 27.8413C102.996 27.9018 102.966 27.932 102.905 27.932C102.814 27.9018 102.693 27.932 102.602 27.932Z" fill="#FF987A"/>
<path d="M92.738 41.7599C93.2524 42.4861 93.9786 43.4846 94.9468 44.3015C97.6397 46.6313 101.845 45.4211 102.904 42.0322L104.145 38.0685C104.145 38.0685 107.473 38.8552 108.563 35.6782C108.865 34.8007 108.805 33.2273 108.502 31.4422C108.411 30.7765 108.26 30.0806 108.109 29.3544C107.776 27.7205 107.322 26.0261 106.868 24.5737C105.93 25.0578 104.538 25.2394 102.511 24.9368C102.511 24.9368 101.301 27.5087 97.7002 25.8445C97.7002 25.8445 99.6367 29.6872 96.0966 30.8975C95.4612 31.1093 94.7652 30.958 94.0693 30.5949C94.2509 31.654 94.6442 32.0776 95.4006 32.9248L92.4657 39.5209C92.1934 40.247 92.2841 41.0943 92.738 41.7599Z" fill="#FCBBA4"/>
<path d="M94.7338 44.5433C93.7353 43.6658 92.9486 42.637 92.4645 41.9411C92.1316 41.457 91.9804 40.8821 92.0106 40.3072C92.0106 40.1257 92.1619 40.0046 92.3435 40.0349C92.525 40.0349 92.646 40.1862 92.6158 40.3677C92.5855 40.8216 92.7065 41.2452 92.9789 41.6083C93.4327 42.274 94.1892 43.2724 95.1271 44.0894C97.578 46.2074 101.36 45.2392 102.51 42.274C102.57 42.1227 102.752 42.0319 102.903 42.0924C103.055 42.1529 103.145 42.3345 103.085 42.4858C101.784 45.8141 97.5477 46.9638 94.7338 44.5433Z" fill="#112544"/>
<path d="M92.3154 40.6399C92.1339 40.6399 92.0129 40.4886 92.0431 40.3071C92.0734 39.9742 92.1339 39.6717 92.2852 39.3691C92.3457 39.2178 92.5272 39.1573 92.6785 39.2178C92.8298 39.2783 92.8903 39.4599 92.8298 39.6111C92.739 39.8532 92.6785 40.0953 92.6483 40.3373C92.618 40.5189 92.497 40.6399 92.3154 40.6399ZM108.291 18.8546C109.078 20.7911 109.623 26.0558 102.542 24.9363C102.542 24.9363 101.332 27.5082 97.7315 25.844C97.7315 25.844 99.668 29.6867 96.1279 30.897C92.618 32.0771 86.7481 22.2737 93.556 21.1542C93.556 21.1542 93.0719 18.9756 95.4925 19.7018C95.4925 19.7018 96.2791 15.1329 100.818 17.7653C100.818 17.7653 106.052 13.3478 108.291 18.8546Z" fill="#112544"/>
<path d="M107.657 27.2358C107.415 26.328 107.173 25.4203 106.931 24.5731C108.201 23.9074 108.685 22.7274 108.776 21.5474C109.472 22.7274 110.773 25.5413 107.657 27.2358ZM102.725 29.4143C102.815 29.7774 103.088 29.9892 103.36 29.9287C103.632 29.8681 103.753 29.5353 103.663 29.1722C103.572 28.8394 103.3 28.5973 103.027 28.6578C102.785 28.7486 102.634 29.0814 102.725 29.4143ZM106.87 28.6578C106.961 29.0209 107.233 29.2327 107.505 29.1722C107.778 29.1117 107.899 28.7789 107.808 28.4158C107.717 28.083 107.445 27.8409 107.173 27.9014C106.9 27.9922 106.779 28.325 106.87 28.6578ZM101.545 27.5988C101.303 27.7501 101.393 27.9317 101.666 27.9619C102.422 28.1132 103.209 27.9014 103.814 27.4476C104.026 27.2963 103.935 27.0845 103.693 27.0239C103.481 26.9634 103.209 27.0239 103.027 27.0542C102.513 27.1752 101.999 27.3568 101.545 27.5988Z" fill="#112544"/>
<path d="M105.69 26.6008C105.478 26.7218 105.509 26.9034 105.811 26.9639C106.568 27.1152 107.354 26.9034 107.96 26.4495C108.171 26.2982 108.081 26.0864 107.839 26.0259C107.627 25.9654 107.354 26.0259 107.173 26.0561C106.689 26.1469 106.174 26.3285 105.69 26.6008Z" fill="#112544"/>
<path d="M105.086 34.6188C104.965 34.528 104.935 34.3162 105.025 34.1952C105.116 34.0742 105.328 34.0439 105.449 34.1347C106.448 34.8911 107.053 34.2557 107.113 34.1649C107.234 34.0439 107.416 34.0136 107.537 34.1347C107.658 34.2557 107.688 34.4372 107.567 34.5583C107.053 35.1937 106.054 35.3752 105.086 34.6188Z" fill="#F97A5D"/>
<path d="M104.147 38.0682C104.147 38.0682 101.545 37.5841 99.2452 35.5871C99.094 35.4358 98.8519 35.6173 98.9427 35.8291C99.457 37.0697 100.758 39.339 103.512 40.1257L104.147 38.0682Z" fill="#E2805D"/>
<path d="M92.8299 30.8676C93.2233 32.3805 94.5546 33.4395 95.7649 33.2277C97.0054 33.0159 97.6711 31.5938 97.2777 30.0809C96.8844 28.568 95.5531 27.509 94.3428 27.7208C93.1325 27.9024 92.4366 29.3245 92.8299 30.8676Z" fill="#FCBBA4"/>
<path d="M95.0396 31.1089L94.737 30.534C94.6462 30.3827 94.7067 30.2012 94.858 30.1104C95.0093 30.0196 95.1909 30.0801 95.2816 30.2314L95.5842 30.8063C95.675 30.9576 95.6144 31.1392 95.4632 31.2299C95.3119 31.2904 95.1303 31.2299 95.0396 31.1089ZM105.478 31.6838C105.478 31.5022 105.599 31.3812 105.751 31.351C105.781 31.351 106.416 31.2904 106.447 31.2602C106.568 30.9576 105.841 29.8078 105.146 28.9909C105.024 28.8699 105.055 28.6581 105.176 28.5673C105.297 28.4463 105.509 28.4765 105.599 28.5975C105.993 29.0817 107.294 30.6853 106.991 31.472C106.931 31.593 106.81 31.8351 106.447 31.8956C106.205 31.9258 105.993 31.9561 105.781 31.9864C105.63 31.9864 105.478 31.8351 105.478 31.6838Z" fill="#F97A5D"/>
<path d="M120.908 41.0338C120.696 40.3682 121.12 39.6723 121.816 39.5512C130.379 38.0081 137.126 31.8356 138.972 29.9899C139.396 29.5663 140.061 29.536 140.515 29.9294C145.417 33.9234 151.317 37.1912 158.064 39.6117C158.397 39.7328 158.639 39.9748 158.76 40.2774C162.058 48.9613 163.722 56.1323 163.783 62.2745C163.874 69.5363 161.786 75.4365 157.459 80.2474C157.278 80.4592 157.005 80.5802 156.733 80.6105C138.215 82.789 126.657 58.7646 120.908 41.0338ZM139.396 30.4135C137.489 32.2895 130.651 38.583 121.907 40.1564C121.574 40.2169 121.362 40.5497 121.483 40.8523C127.141 58.3108 138.518 82.1233 156.642 80.0053C156.854 79.9751 156.975 79.854 157.005 79.8238C164.872 71.0491 165.235 58.9159 158.185 40.4589C158.125 40.3077 158.004 40.1866 157.853 40.1261C151.045 37.6753 145.084 34.3772 140.122 30.353C139.91 30.2017 139.607 30.2017 139.396 30.4135Z" fill="#112544"/>
<path d="M69.4106 14.0742V67.3575C69.4106 70.6858 66.7177 73.4089 63.3591 73.4089H6.35421C3.0259 73.4089 0.302734 70.716 0.302734 67.3575V14.0742H69.4106Z" fill="white"/>
<path d="M69.0153 47.0248C69.1969 45.754 69.3179 44.5135 69.4087 43.2427V67.3578C69.4087 70.6861 66.7158 73.4093 63.3572 73.4093H6.35232C4.77894 73.4093 3.32659 72.8041 2.26758 71.8056C16.0044 70.2322 30.1044 74.0749 43.811 71.8359C50.982 70.6558 58.1227 67.6301 62.7521 62.1535C66.3527 57.9175 68.2589 52.4712 69.0153 47.0248Z" fill="#E1E5FF"/>
<path d="M69.4106 14.0747V9.05196C69.4106 5.72365 66.7177 3.00049 63.3591 3.00049H6.35421C3.0259 3.00049 0.302734 5.69339 0.302734 9.05196V14.0747H69.4106Z" fill="#FFC25E"/>
<path d="M69.4106 9.05145V14.0742H0.333008V12.0772H64.2668C66.0218 12.0772 67.4439 10.6551 67.4439 8.90016V7.02421C67.4439 5.87443 67.111 4.78516 66.5664 3.87744C68.2608 4.96671 69.4106 6.87292 69.4106 9.05145Z" fill="#EFA130"/>
<path d="M63.3589 73.7118H6.35405C2.84419 73.7118 0 70.8676 0 67.3578V14.0745C0 13.893 0.121029 13.772 0.302574 13.772H69.3802C69.5617 13.772 69.6827 13.893 69.6827 14.0745V67.3578C69.713 70.8676 66.8688 73.7118 63.3589 73.7118ZM0.635404 14.3771V67.3578C0.635404 70.5348 3.20728 73.1067 6.38431 73.1067H63.3892C66.5662 73.1067 69.1381 70.5348 69.1381 67.3578V14.3771H0.635404Z" fill="#112544"/>
<path d="M47.2008 31.9866C47.2008 38.7945 41.694 44.3014 34.886 44.3014C28.0781 44.3014 22.5713 38.7945 22.5713 31.9866C22.5713 25.1787 28.0781 19.6719 34.886 19.6719C41.6637 19.6719 47.2008 25.1787 47.2008 31.9866Z" fill="#E1E5FF"/>
<path d="M47.2007 31.9871C47.2007 38.795 41.6939 44.3018 34.886 44.3018C31.4972 44.3018 28.4109 42.9402 26.1719 40.7012C28.0176 41.8207 30.1961 42.4561 32.4957 42.4561C39.3036 42.4561 44.8104 36.9493 44.8104 30.1414C44.8104 26.7223 43.4186 23.636 41.1795 21.4272C44.7801 23.5755 47.2007 27.4787 47.2007 31.9871Z" fill="#CCD2FF"/>
<path d="M54.1309 51.2903V56.071C54.1309 56.7669 53.556 57.3418 52.8601 57.3418H16.8841C16.1882 57.3418 15.6133 56.7669 15.6133 56.071V51.2903C15.6133 50.5944 16.1882 50.0195 16.8841 50.0195H52.8298C53.556 50.0195 54.1309 50.5944 54.1309 51.2903Z" fill="#E1E5FF"/>
<path d="M54.1309 51.2903V56.071C54.1309 56.7972 53.556 57.3418 52.8601 57.3418H16.8841C16.1882 57.3418 15.6133 56.7669 15.6133 56.071C15.6738 56.071 15.7041 56.071 15.7646 56.071H51.7103C52.4062 56.071 52.9811 55.4961 52.9811 54.8002V50.0195C53.6468 50.1103 54.1309 50.6549 54.1309 51.2903Z" fill="#CCD2FF"/>
<path d="M69.4095 14.3766H0.331871C0.150326 14.3766 0.0292969 14.2556 0.0292969 14.074V9.05131C0.0292969 5.54146 2.87349 2.69727 6.38335 2.69727H63.3882C66.8981 2.69727 69.7423 5.54146 69.7423 9.05131V14.074C69.712 14.2253 69.591 14.3766 69.4095 14.3766ZM0.634444 13.7715H69.1069V9.05131C69.1069 5.87429 66.535 3.30241 63.358 3.30241H6.35309C3.17606 3.30241 0.604187 5.87429 0.604187 9.05131V13.7715H0.634444Z" fill="#112544"/>
<path d="M6.08224 10.5038C6.88435 10.5038 7.53459 9.85359 7.53459 9.05148C7.53459 8.24936 6.88435 7.59912 6.08224 7.59912C5.28012 7.59912 4.62988 8.24936 4.62988 9.05148C4.62988 9.85359 5.28012 10.5038 6.08224 10.5038Z" fill="white"/>
<path d="M11.4074 10.5038C12.2095 10.5038 12.8598 9.85359 12.8598 9.05148C12.8598 8.24936 12.2095 7.59912 11.4074 7.59912C10.6053 7.59912 9.95508 8.24936 9.95508 9.05148C9.95508 9.85359 10.6053 10.5038 11.4074 10.5038Z" fill="white"/>
<path d="M16.7326 10.5038C17.5347 10.5038 18.185 9.85359 18.185 9.05148C18.185 8.24936 17.5347 7.59912 16.7326 7.59912C15.9305 7.59912 15.2803 8.24936 15.2803 9.05148C15.2803 9.85359 15.9305 10.5038 16.7326 10.5038Z" fill="white"/>
<path d="M7.53368 9.05201C7.53368 9.86896 6.86802 10.5044 6.08132 10.5044C5.47618 10.5044 4.9618 10.1413 4.75 9.6269C5.93004 10.1413 7.17059 8.90072 6.65622 7.69043C7.17059 7.93249 7.53368 8.44686 7.53368 9.05201ZM12.859 9.05201C12.859 9.86896 12.1933 10.5044 11.4066 10.5044C10.8015 10.5044 10.2871 10.1413 10.0753 9.6269C11.3159 10.1413 12.4959 8.87047 11.9815 7.69043C12.4959 7.93249 12.859 8.44686 12.859 9.05201ZM18.1843 9.05201C18.1843 9.86896 17.5186 10.5044 16.7319 10.5044C16.1268 10.5044 15.6124 10.1413 15.4006 9.6269C16.5806 10.1413 17.8514 8.90072 17.3068 7.69043C17.8212 7.93249 18.1843 8.44686 18.1843 9.05201Z" fill="#E1E5FF"/>
<path d="M6.0811 10.837C5.11286 10.837 4.32617 10.0503 4.32617 9.08207C4.32617 8.11384 5.11286 7.32715 6.0811 7.32715C7.04934 7.32715 7.83603 8.11384 7.83603 9.08207C7.83603 10.0503 7.04934 10.837 6.0811 10.837ZM6.0811 7.90204C5.4457 7.90204 4.93132 8.41641 4.93132 9.05182C4.93132 9.68722 5.4457 10.2016 6.0811 10.2016C6.7165 10.2016 7.23088 9.68722 7.23088 9.05182C7.23088 8.41641 6.7165 7.90204 6.0811 7.90204ZM11.4064 10.837C10.4382 10.837 9.65147 10.0503 9.65147 9.08207C9.65147 8.11384 10.4382 7.32715 11.4064 7.32715C12.3746 7.32715 13.1613 8.11384 13.1613 9.08207C13.1613 10.0503 12.3746 10.837 11.4064 10.837ZM11.4064 7.90204C10.771 7.90204 10.2566 8.41641 10.2566 9.05182C10.2566 9.68722 10.771 10.2016 11.4064 10.2016C12.0418 10.2016 12.5562 9.68722 12.5562 9.05182C12.5562 8.41641 12.0418 7.90204 11.4064 7.90204ZM16.7317 10.837C15.7635 10.837 14.9768 10.0503 14.9768 9.08207C14.9768 8.11384 15.7635 7.32715 16.7317 7.32715C17.6999 7.32715 18.4866 8.11384 18.4866 9.08207C18.4866 10.0503 17.6999 10.837 16.7317 10.837ZM16.7317 7.90204C16.0963 7.90204 15.5819 8.41641 15.5819 9.05182C15.5819 9.68722 16.0963 10.2016 16.7317 10.2016C17.3671 10.2016 17.8815 9.68722 17.8815 9.05182C17.8815 8.41641 17.3671 7.90204 16.7317 7.90204Z" fill="#112544"/>
<path d="M43.3874 63.1517V67.9323C43.3874 68.6283 42.8125 69.2031 42.1166 69.2031H27.6234C26.9274 69.2031 26.3525 68.6283 26.3525 67.9323V63.1517C26.3525 62.4557 26.9274 61.8809 27.6234 61.8809H42.1166C42.8125 61.8809 43.3874 62.4557 43.3874 63.1517Z" fill="#FC6054"/>
<path d="M43.3874 63.1517V67.9323C43.3874 68.6585 42.8125 69.2031 42.1166 69.2031H27.6234C26.9274 69.2031 26.3525 68.6283 26.3525 67.9323H40.8458C41.5417 67.9323 42.1166 67.3574 42.1166 66.6615V61.8809C42.8428 61.8809 43.3874 62.4557 43.3874 63.1517Z" fill="#E64B38"/>
<path d="M52.8267 57.675H16.881C16.0035 57.675 15.3076 56.9488 15.3076 56.1016V51.3209C15.3076 50.4435 16.0338 49.7476 16.881 49.7476H52.8267C53.7042 49.7476 54.4001 50.4737 54.4001 51.3209V56.1016C54.4304 56.9488 53.7042 57.675 52.8267 57.675ZM16.881 50.3224C16.3364 50.3224 15.9128 50.7763 15.9128 51.2907V56.0713C15.9128 56.616 16.3666 57.0396 16.881 57.0396H52.8267C53.3714 57.0396 53.795 56.5857 53.795 56.0713V51.2907C53.795 50.7461 53.3411 50.3224 52.8267 50.3224H16.881Z" fill="#112544"/>
<path d="M21.5729 53.6815C21.5729 54.3774 20.998 54.9523 20.3021 54.9523C19.6061 54.9523 19.0312 54.3774 19.0312 53.6815C19.0312 52.9855 19.6061 52.4106 20.3021 52.4106C20.998 52.4106 21.5729 52.9855 21.5729 53.6815Z" fill="white"/>
<path d="M20.3029 55.2547C19.4254 55.2547 18.7295 54.5588 18.7295 53.6813C18.7295 52.8038 19.4254 52.1079 20.3029 52.1079C21.1803 52.1079 21.8763 52.8038 21.8763 53.6813C21.8763 54.5588 21.1803 55.2547 20.3029 55.2547ZM20.3029 52.7131C19.7582 52.7131 19.3346 53.1367 19.3346 53.6813C19.3346 54.2259 19.7582 54.6495 20.3029 54.6495C20.8475 54.6495 21.2711 54.2259 21.2711 53.6813C21.2711 53.1367 20.8475 52.7131 20.3029 52.7131Z" fill="#112544"/>
<path d="M26.4459 53.6815C26.4459 54.3774 25.871 54.9523 25.1751 54.9523C24.4792 54.9523 23.9043 54.3774 23.9043 53.6815C23.9043 52.9855 24.4792 52.4106 25.1751 52.4106C25.871 52.4106 26.4459 52.9855 26.4459 53.6815Z" fill="white"/>
<path d="M25.1447 55.2547C24.2672 55.2547 23.5713 54.5588 23.5713 53.6813C23.5713 52.8038 24.2672 52.1079 25.1447 52.1079C26.0221 52.1079 26.7181 52.8038 26.7181 53.6813C26.7483 54.5588 26.0221 55.2547 25.1447 55.2547ZM25.1447 52.7131C24.6 52.7131 24.1764 53.1367 24.1764 53.6813C24.1764 54.2259 24.6 54.6495 25.1447 54.6495C25.6893 54.6495 26.1129 54.2259 26.1129 53.6813C26.1432 53.1367 25.6893 52.7131 25.1447 52.7131Z" fill="#112544"/>
<path d="M31.2858 53.6815C31.2858 54.3774 30.7109 54.9523 30.0149 54.9523C29.319 54.9523 28.7441 54.3774 28.7441 53.6815C28.7441 52.9855 29.319 52.4106 30.0149 52.4106C30.7109 52.4106 31.2858 52.9855 31.2858 53.6815Z" fill="white"/>
<path d="M30.0158 55.2547C29.1383 55.2547 28.4424 54.5588 28.4424 53.6813C28.4424 52.8038 29.1383 52.1079 30.0158 52.1079C30.8932 52.1079 31.5891 52.8038 31.5891 53.6813C31.5891 54.5588 30.8932 55.2547 30.0158 55.2547ZM30.0158 52.7131C29.4711 52.7131 29.0475 53.1367 29.0475 53.6813C29.0475 54.2259 29.4711 54.6495 30.0158 54.6495C30.5604 54.6495 30.984 54.2259 30.984 53.6813C30.984 53.1367 30.5604 52.7131 30.0158 52.7131Z" fill="#112544"/>
<path d="M36.1285 53.6815C36.1285 54.3774 35.5536 54.9523 34.8577 54.9523C34.1618 54.9523 33.5869 54.3774 33.5869 53.6815C33.5869 52.9855 34.1618 52.4106 34.8577 52.4106C35.5839 52.4106 36.1285 52.9855 36.1285 53.6815Z" fill="white"/>
<path d="M34.8566 55.2547C33.9791 55.2547 33.2832 54.5588 33.2832 53.6813C33.2832 52.8038 33.9791 52.1079 34.8566 52.1079C35.734 52.1079 36.43 52.8038 36.43 53.6813C36.43 54.5588 35.734 55.2547 34.8566 55.2547ZM34.8566 52.7131C34.312 52.7131 33.8884 53.1367 33.8884 53.6813C33.8884 54.2259 34.312 54.6495 34.8566 54.6495C35.4012 54.6495 35.8248 54.2259 35.8248 53.6813C35.8248 53.1367 35.4012 52.7131 34.8566 52.7131Z" fill="#112544"/>
<path d="M40.9977 53.6815C40.9977 54.3774 40.4228 54.9523 39.7269 54.9523C39.0309 54.9523 38.4561 54.3774 38.4561 53.6815C38.4561 52.9855 39.0309 52.4106 39.7269 52.4106C40.4228 52.4106 40.9977 52.9855 40.9977 53.6815Z" fill="white"/>
<path d="M39.7287 55.2547C38.8512 55.2547 38.1553 54.5588 38.1553 53.6813C38.1553 52.8038 38.8512 52.1079 39.7287 52.1079C40.6061 52.1079 41.302 52.8038 41.302 53.6813C41.302 54.5588 40.6061 55.2547 39.7287 55.2547ZM39.7287 52.7131C39.184 52.7131 38.7604 53.1367 38.7604 53.6813C38.7604 54.2259 39.184 54.6495 39.7287 54.6495C40.2733 54.6495 40.6969 54.2259 40.6969 53.6813C40.6969 53.1367 40.2733 52.7131 39.7287 52.7131Z" fill="#112544"/>
<path d="M45.8404 53.6815C45.8404 54.3774 45.2656 54.9523 44.5696 54.9523C43.8737 54.9523 43.2988 54.3774 43.2988 53.6815C43.2988 52.9855 43.8737 52.4106 44.5696 52.4106C45.2958 52.4106 45.8404 52.9855 45.8404 53.6815Z" fill="white"/>
<path d="M44.5695 55.2547C43.692 55.2547 42.9961 54.5588 42.9961 53.6813C42.9961 52.8038 43.692 52.1079 44.5695 52.1079C45.4469 52.1079 46.1429 52.8038 46.1429 53.6813C46.1429 54.5588 45.4469 55.2547 44.5695 55.2547ZM44.5695 52.7131C44.0248 52.7131 43.6012 53.1367 43.6012 53.6813C43.6012 54.2259 44.0248 54.6495 44.5695 54.6495C45.1141 54.6495 45.5377 54.2259 45.5377 53.6813C45.5377 53.1367 45.1141 52.7131 44.5695 52.7131Z" fill="#112544"/>
<path d="M50.7096 53.6819C50.7096 54.3779 50.1347 54.9528 49.4388 54.9528C48.7429 54.9528 48.168 54.3779 48.168 53.6819C48.168 52.986 48.7429 52.4111 49.4388 52.4111C50.1347 52.4111 50.7096 52.986 50.7096 53.6819Z" fill="white"/>
<path d="M49.4416 55.2547C48.5641 55.2547 47.8682 54.5588 47.8682 53.6813C47.8682 52.8038 48.5641 52.1079 49.4416 52.1079C50.319 52.1079 51.0149 52.8038 51.0149 53.6813C51.0149 54.5588 50.319 55.2547 49.4416 55.2547ZM49.4416 52.7131C48.8969 52.7131 48.4733 53.1367 48.4733 53.6813C48.4733 54.2259 48.8969 54.6495 49.4416 54.6495C49.9862 54.6495 50.4098 54.2259 50.4098 53.6813C50.4098 53.1367 49.9559 52.7131 49.4416 52.7131Z" fill="#112544"/>
<path d="M42.1184 69.5363H27.6251C26.7477 69.5363 26.0518 68.8101 26.0518 67.9629V63.1823C26.0518 62.3048 26.7779 61.6089 27.6251 61.6089H42.1184C42.9959 61.6089 43.6918 62.3351 43.6918 63.1823V67.9629C43.6918 68.8101 42.9959 69.5363 42.1184 69.5363ZM27.6251 62.1838C27.0805 62.1838 26.6569 62.6376 26.6569 63.152V67.9327C26.6569 68.4773 27.1108 68.9009 27.6251 68.9009H42.1184C42.6631 68.9009 43.0867 68.447 43.0867 67.9327V63.152C43.0867 62.6074 42.6328 62.1838 42.1184 62.1838H27.6251Z" fill="#112544"/>
<path d="M42.9355 41.3061C37.3077 46.2078 28.6238 44.9975 24.5391 38.704C26.415 38.1593 28.4725 37.9475 30.7721 38.0988C30.8326 38.0988 30.8931 38.0988 30.9234 38.0988C33.8583 38.2199 36.3394 38.7645 38.3969 39.4604C40.1821 39.884 41.6647 40.5194 42.9355 41.3061Z" fill="#8D95FF"/>
<path d="M38.3351 29.3547C38.3048 29.3245 38.3351 29.264 38.3654 29.2337L38.3956 29.2035C38.4259 29.1732 38.4864 29.2034 38.5166 29.2337C38.5469 29.264 38.5469 29.2942 38.5469 29.2942C38.5166 29.385 38.3653 29.4455 38.3351 29.3547ZM36.7617 29.6876C36.6709 29.6876 36.6104 29.6876 36.5196 29.6876C36.4591 29.6876 36.4289 29.6271 36.4591 29.5665C36.4894 29.5363 36.5197 29.506 36.5499 29.506C36.6407 29.506 36.7012 29.506 36.792 29.506C36.8827 29.5363 36.8827 29.6876 36.7617 29.6876Z" fill="#FF987A"/>
<path d="M36.9149 29.7172C36.8241 29.7172 36.7939 29.7172 36.7636 29.7172C36.7031 29.7172 36.6729 29.6869 36.6729 29.6264C36.6729 29.5659 36.7031 29.5356 36.7636 29.5356C36.8847 29.5356 37.0359 29.5356 37.157 29.5356C37.278 29.5356 37.278 29.7172 37.157 29.7172C37.0662 29.6869 37.0057 29.7172 36.9149 29.7172Z" fill="#FF987A"/>
<path d="M37.2158 29.6869C37.0947 29.6869 37.0947 29.5054 37.2158 29.5054C37.2763 29.5054 37.3368 29.5054 37.4276 29.4751C37.4881 29.4751 37.5183 29.5054 37.5183 29.5659C37.5183 29.6264 37.4881 29.6566 37.4276 29.6566C37.3368 29.6869 37.2763 29.6869 37.2158 29.6869Z" fill="#FF987A"/>
<path d="M31.0746 39.0363C31.4377 39.5204 31.9521 40.1255 32.5875 40.6399C34.4332 42.0923 37.1564 41.2148 37.7615 38.9455L38.4877 36.3131C38.4877 36.3131 40.6965 36.7367 41.3319 34.6187C41.5134 34.0136 41.4226 32.9848 41.1806 31.835C41.0898 31.4114 40.999 30.9273 40.878 30.4734C40.6057 29.4144 40.2729 28.3252 39.94 27.3569C39.3349 27.6898 38.4272 27.8713 37.0958 27.72C37.0958 27.72 36.3697 29.4447 33.9491 28.4462C33.9491 28.4462 35.3107 30.9273 33.0414 31.8048C32.648 31.9561 32.1639 31.8955 31.71 31.6535C31.8613 32.3494 32.1336 32.6217 32.648 33.1361L30.8931 37.5537C30.6813 38.0378 30.7418 38.6127 31.0746 39.0363Z" fill="#FCBBA4"/>
<path d="M32.4071 40.9124C31.8625 40.4585 31.3178 39.9139 30.8337 39.2482C30.5917 38.9154 30.4706 38.5221 30.4706 38.1287C30.4706 37.9472 30.6219 37.8261 30.7732 37.8261C30.9547 37.8261 31.0758 37.9774 31.0758 38.1287C31.0758 38.401 31.1665 38.6734 31.3178 38.8852C31.6204 39.3088 32.1348 39.9442 32.8004 40.4585C34.4041 41.7293 36.7339 41.0334 37.4298 39.1877C37.4903 39.0364 37.6719 38.9457 37.8232 39.0062C37.9745 39.0667 38.0652 39.2482 38.0047 39.3995C37.1575 41.5781 34.3436 42.4253 32.4071 40.9124ZM40.7279 23.5447C41.3028 24.7852 41.7869 28.2648 37.097 27.6899C37.097 27.6899 36.3708 29.4146 33.9502 28.4161C33.9502 28.4161 35.3118 30.8972 33.0425 31.7747C30.7732 32.6521 26.6279 26.3586 31.0758 25.4206C31.0758 25.4206 30.7127 23.9985 32.3163 24.4221C32.3163 24.4221 32.7097 21.3964 35.7657 23C35.7657 23.0303 39.094 19.9743 40.7279 23.5447Z" fill="#112544"/>
<path d="M40.5133 29.082C40.3318 28.4768 40.1502 27.9019 39.9687 27.3573C40.7856 26.9034 41.0882 26.0865 41.0882 25.2998C41.6026 26.0562 42.5406 27.9019 40.5133 29.082ZM37.3363 30.6554C37.3968 30.8974 37.6086 31.0184 37.7599 30.9882C37.9414 30.9277 38.002 30.7159 37.9414 30.4738C37.8809 30.262 37.6691 30.1107 37.5178 30.141C37.3363 30.2015 37.2758 30.4133 37.3363 30.6554ZM40.0292 30.0502C40.0897 30.2923 40.3015 30.4133 40.4528 30.383C40.6343 30.3225 40.6949 30.1107 40.6343 29.8687C40.5738 29.6569 40.362 29.5056 40.2107 29.5358C40.0292 29.5964 39.9687 29.8082 40.0292 30.0502ZM36.4891 29.4753C36.3378 29.5661 36.3681 29.6871 36.5799 29.7174C37.064 29.7779 37.6086 29.6569 37.9717 29.324C38.0927 29.203 38.0322 29.082 37.8809 29.0517C37.7599 29.0215 37.5784 29.082 37.4573 29.082C37.1245 29.1727 36.7917 29.2938 36.4891 29.4753Z" fill="#112544"/>
<path d="M39.2127 28.7187C39.0614 28.8095 39.0917 28.9305 39.3035 28.9608C39.7876 29.0213 40.3322 28.9002 40.6953 28.5674C40.8164 28.4464 40.7558 28.3254 40.6046 28.2951C40.4835 28.2648 40.302 28.3253 40.181 28.3253C39.8481 28.3859 39.5153 28.5372 39.2127 28.7187Z" fill="#112544"/>
<path d="M38.9404 34.1052C38.7891 34.0145 38.7588 33.8329 38.8799 33.6816C38.9706 33.5303 39.1522 33.5001 39.3035 33.6211C39.9086 34.0447 40.2112 33.6816 40.2415 33.6211C40.3322 33.5001 40.544 33.4698 40.6651 33.5606C40.7861 33.6514 40.8163 33.8632 40.7256 33.9842C40.3625 34.4381 39.6666 34.5893 38.9404 34.1052ZM38.4865 36.314C38.4865 36.314 36.7619 36.072 35.1885 34.8011C35.0674 34.7104 34.9162 34.8314 34.9767 34.9524C35.3398 35.7391 36.2475 37.2217 38.0932 37.6453L38.4865 36.314Z" fill="#E2805D"/>
<path d="M30.8628 31.8656C31.1653 32.8641 32.0428 33.5298 32.8598 33.3482C33.6767 33.1667 34.0701 32.2287 33.7675 31.2302C33.4649 30.2317 32.5874 29.5661 31.7705 29.7476C30.9838 29.8989 30.5602 30.8671 30.8628 31.8656Z" fill="#FCBBA4"/>
<path d="M32.2233 32.0173L32.0115 31.6543C31.9207 31.503 31.9812 31.3214 32.1022 31.2307C32.2535 31.1399 32.4351 31.2004 32.5259 31.3214L32.7377 31.6845C32.8284 31.8358 32.7679 32.0173 32.6469 32.1081C32.4956 32.1989 32.3141 32.1384 32.2233 32.0173ZM39.0917 32.0779C39.0614 31.9266 39.1825 31.7753 39.364 31.745C39.485 31.745 39.6061 31.7148 39.7271 31.6845C39.6968 31.4425 39.3035 30.8676 38.8496 30.3532C38.7286 30.2322 38.7589 30.0506 38.8799 29.9296C39.0009 29.8086 39.1825 29.8388 39.3035 29.9598C39.6666 30.3532 40.5138 31.3517 40.3323 31.9266C40.302 32.0476 40.181 32.2291 39.9086 32.2897C39.7574 32.3199 39.6061 32.3502 39.4548 32.3502C39.2732 32.3502 39.122 32.2594 39.0917 32.0779Z" fill="#E2805D"/>
<path d="M34.8566 44.6038C27.8974 44.6038 22.2393 38.9457 22.2393 31.9865C22.2393 25.0273 27.8974 19.3691 34.8566 19.3691C41.8158 19.3691 47.4739 25.0273 47.4739 31.9865C47.5042 38.9457 41.8158 44.6038 34.8566 44.6038ZM34.8566 19.9743C28.2302 19.9743 22.8444 25.3601 22.8444 31.9865C22.8444 38.6128 28.2302 43.9986 34.8566 43.9986C41.4829 43.9986 46.8688 38.6128 46.8688 31.9865C46.899 25.3601 41.4829 19.9743 34.8566 19.9743Z" fill="#112544"/>
<path d="M96.7938 85.8446C92.7393 83.2123 88.1705 80.247 83.3293 82.0625C80.9087 82.9702 78.6697 83.3333 76.6424 83.1215C76.4911 83.0912 76.3398 82.9702 76.3701 82.7887C76.4004 82.6374 76.5214 82.5163 76.7029 82.5163C78.6091 82.6979 80.7574 82.365 83.1175 81.4876C88.2612 79.5511 92.9814 82.6071 97.1266 85.3303C100.334 87.418 103.087 89.2032 105.266 88.1745C107.686 87.0247 110.742 75.6177 113.617 56.9186C113.647 56.7673 113.798 56.6463 113.95 56.6765C114.101 56.7068 114.222 56.8581 114.192 57.0094C112.104 70.5949 108.897 87.0852 105.508 88.7191C102.845 89.9899 99.517 87.5996 96.7938 85.8446Z" fill="#112544"/>
<path d="M82.0585 49.687C83.4504 61.5177 74.9481 66.7824 74.9481 66.7824C77.0963 71.079 76.8845 80.0654 76.4609 86.1472C76.1886 89.7175 75.8558 92.2591 75.8558 92.2591C71.8316 90.5647 68.5335 91.0791 65.7801 93.4089C62.5123 83.9384 61.5743 75.3755 61.7558 68.9005C61.8769 64.6947 62.5123 61.3966 63.299 59.2786C66.9904 49.5055 75.9466 38.5221 91.7409 40.277L82.0585 49.687Z" fill="#66D3D8"/>
<path d="M76.4609 86.1777C76.1886 89.7481 75.8558 92.2897 75.8558 92.2897C71.8316 90.5953 68.5335 91.1097 65.7801 93.4395C62.5123 83.9689 61.5743 75.4061 61.7558 68.931C61.9677 68.9007 62.1795 68.9008 62.3913 68.9613C63.3897 69.2336 63.7528 70.3834 63.9646 71.3819C64.7816 75.4969 65.1144 79.6724 64.9631 83.8479C64.9329 84.8464 64.8724 85.9054 65.2354 86.8434C65.5985 87.7813 66.5063 88.5983 67.5047 88.5075C69.1084 88.326 69.6833 86.208 71.0449 85.3608C71.9828 84.7859 73.1931 84.8766 74.2521 85.2397C75.0086 85.4818 75.7045 85.8449 76.4609 86.1777Z" fill="#47B6C3"/>
<path d="M65.78 93.7423C65.6893 93.7423 65.5985 93.7121 65.538 93.6213C65.417 93.5003 65.4472 93.2885 65.5682 93.1977C68.4124 90.7771 71.771 90.3535 75.6137 91.8361C75.9465 89.1129 77.7317 73.016 74.6757 66.904C74.6152 66.7527 74.6455 66.6015 74.7967 66.5107C74.8875 66.4502 83.1175 61.1854 81.7559 49.7178C81.7257 49.5666 81.8467 49.4153 82.0283 49.385C82.2098 49.3547 82.3308 49.4758 82.3611 49.6573C83.6319 60.429 76.703 65.9358 75.3414 66.904C78.5789 73.8935 76.2491 91.5638 76.1583 92.3505C76.1583 92.4413 76.0978 92.532 76.007 92.5623C75.9163 92.6228 75.8255 92.6228 75.7347 92.5925C71.9526 90.9889 68.7453 91.352 65.9616 93.6818C65.9011 93.7121 65.8406 93.7423 65.78 93.7423Z" fill="#112544"/>
<path d="M156.885 53.106C158.307 59.218 154.464 64.1802 148.352 64.1802C144.873 64.1802 141.393 62.5766 138.791 60.0652C141.181 61.8504 144.026 62.9396 146.9 62.9396C153.012 62.9396 156.824 57.9774 155.433 51.8654C154.827 49.2331 153.345 46.8125 151.378 44.9062C154.071 46.9335 156.128 49.8382 156.885 53.106Z" fill="#E1E5FF"/>
<path d="M148.353 64.483C142.12 64.483 135.886 59.3998 134.434 53.1668C132.982 46.8127 136.976 41.7295 143.269 41.7295C149.502 41.7295 155.766 46.8127 157.188 53.0457C158.64 59.3998 154.646 64.483 148.353 64.483ZM143.269 42.3346C137.369 42.3346 133.678 47.085 135.039 53.0457C136.401 59.0367 142.392 63.8779 148.353 63.8779C154.253 63.8779 157.974 59.1577 156.583 53.1668C155.221 47.1758 149.23 42.3346 143.269 42.3346Z" fill="#112544"/>
<path d="M153.284 53.1064C154.222 57.2214 151.65 60.5799 147.535 60.5799C143.42 60.5799 139.305 57.2516 138.367 53.1064C137.429 48.9914 140.001 45.6328 144.116 45.6328C148.231 45.6328 152.315 48.9611 153.284 53.1064Z" fill="#66D3D8"/>
<path d="M153.285 53.106C154.223 57.221 151.651 60.5795 147.536 60.5795C144.752 60.5795 141.969 59.0667 140.184 56.7974C147.324 63.8776 157.097 56.6461 150.683 48.5371C151.923 49.7777 152.892 51.3813 153.285 53.106Z" fill="#47B6C3"/>
<path d="M144.236 54.8308L142.663 52.9246C142.3 52.501 142.33 51.9564 142.693 51.7143C143.056 51.4723 143.631 51.5933 143.994 52.0169L144.902 53.1062L147.262 51.1394C147.595 50.8671 148.17 50.9579 148.533 51.3512C148.896 51.7446 148.926 52.2892 148.593 52.5918L145.598 55.1334C145.205 55.4057 144.569 55.2242 144.236 54.8308Z" fill="white"/>
<path d="M131.498 19.6114L124.993 11.2604C124.902 11.1394 124.902 10.9276 125.053 10.8368C125.174 10.746 125.386 10.746 125.477 10.8973L131.982 19.2483C132.073 19.3694 132.073 19.5812 131.922 19.6719C131.801 19.7627 131.619 19.7324 131.498 19.6114ZM135.492 24.7249L133.888 22.6674C133.798 22.5464 133.798 22.3346 133.949 22.2438C134.07 22.153 134.282 22.153 134.372 22.3043L135.976 24.3618C136.067 24.4829 136.067 24.6947 135.916 24.7854C135.795 24.8762 135.583 24.8459 135.492 24.7249ZM120.121 27.206L119.183 26.9942C119.032 26.964 118.911 26.7824 118.941 26.6311C118.971 26.4798 119.153 26.3588 119.304 26.4193L120.242 26.6311C120.394 26.6614 120.515 26.8429 120.484 26.9942C120.454 27.1455 120.273 27.2665 120.121 27.206ZM132.345 30.0502L122.754 27.8112C122.602 27.7809 122.481 27.5994 122.542 27.4481C122.572 27.2968 122.754 27.1758 122.905 27.2363L132.496 29.4451C132.648 29.4753 132.769 29.6569 132.708 29.8082C132.678 29.9897 132.496 30.0805 132.345 30.0502ZM141.816 12.5615C141.664 12.5312 141.543 12.3799 141.543 12.2286L141.725 10.867C141.755 10.7158 141.907 10.5947 142.058 10.5947C142.209 10.625 142.33 10.7763 142.33 10.9276L142.149 12.2891C142.149 12.4707 141.997 12.5917 141.816 12.5615ZM140.363 23.8777C140.212 23.8475 140.091 23.6962 140.091 23.5449L141.029 16.2226C141.059 16.0713 141.211 15.9503 141.362 15.9503C141.513 15.9805 141.634 16.1318 141.634 16.2831L140.696 23.6054C140.666 23.7869 140.515 23.908 140.363 23.8777Z" fill="#CCD2FF"/>
<path d="M29.9842 112.018C29.9842 114.892 31.5273 117.252 31.1944 120.187C30.8919 122.91 28.8041 125.815 26.1112 127.267C22.8132 129.022 19.1823 128.326 17.0945 126.42C16.9735 126.299 16.8222 126.178 16.7012 126.057C21.9054 128.266 28.441 123.818 29.6211 118.825C30.2867 116.012 29.0159 113.712 29.3488 110.928C29.7118 107.751 32.1627 104.393 34.0386 101.881C33.5243 102.729 29.9842 108.508 29.9842 112.018Z" fill="#E1E5FF"/>
<path d="M16.8818 126.632C15.6715 125.512 14.1586 124.514 13.9166 122.638C13.6443 120.731 14.6427 118.462 16.3372 116.949C18.3341 115.225 21.1481 114.498 22.3281 112.38C23.2358 110.777 22.8122 109.264 22.4794 104.483C21.9348 97.7963 22.3281 90.6859 28.7427 87.0247C32.8879 84.6647 37.0029 86.0565 38.1527 89.3243C39.6051 93.409 36.4583 98.4923 34.3403 101.911C32.5249 104.846 30.2555 108.507 30.2555 111.957C30.2555 114.771 31.7987 117.161 31.4658 120.157C31.133 122.97 28.9847 125.996 26.2313 127.449C22.9635 129.294 19.1511 128.689 16.8818 126.632ZM29.0453 87.5996C22.903 91.1095 22.5399 97.9476 23.0846 104.483C23.4779 109.385 23.841 111.019 22.8727 112.713C21.6019 115.013 18.667 115.769 16.7608 117.433C15.2176 118.765 14.3099 120.883 14.5217 122.577C14.7335 124.181 16.1556 125.149 17.3054 126.208C19.1208 127.872 22.6004 128.81 25.959 126.995C28.5611 125.603 30.5581 122.789 30.8607 120.157C31.1935 117.312 29.6504 114.922 29.6504 112.017C29.6504 108.417 31.95 104.695 33.8259 101.669C35.7927 98.462 38.9394 93.4696 37.5778 89.5966C36.4281 86.2078 32.3736 85.6934 29.0453 87.5996Z" fill="#CCD2FF"/>
<path d="M19.0309 140.58C18.9098 140.58 18.8191 140.52 18.7586 140.429C18.698 140.338 13.524 130.625 22.3894 117.191C30.3169 105.209 29.6209 95.1336 29.6209 95.0428C29.6209 94.8612 29.742 94.7402 29.8933 94.71C30.0748 94.71 30.1958 94.831 30.2261 94.9823C30.2261 95.073 30.9523 105.361 22.9038 117.524C14.2199 130.656 19.2427 140.035 19.3032 140.126C19.394 140.338 19.2729 140.58 19.0309 140.58Z" fill="#CCD2FF"/>
<path d="M18.487 122.123C17.3069 121.579 15.5217 122.063 14.7956 120.913C14.4022 120.247 14.4627 119.249 14.5838 118.28C15.0679 113.742 15.4612 110.928 14.9771 108.507C13.2524 100.066 2.72288 106.934 6.29325 114.589C6.95891 116.011 7.95741 117.161 8.77436 118.462C9.59131 119.763 10.257 121.306 10.1965 123.122C10.1057 125.209 9.07693 127.509 9.19796 129.536C9.31899 131.412 10.5595 132.804 12.1934 132.895C14.2207 133.016 16.5202 131.17 17.8818 129.022C18.6383 127.842 19.6065 126.571 19.788 125.209C19.9998 123.848 19.4855 122.577 18.487 122.123Z" fill="#CCD2FF"/>
<path d="M12.1931 133.077C10.4684 132.986 9.1976 131.533 9.04632 129.567C8.92529 127.509 9.95404 125.21 10.0448 123.122C10.1053 121.609 9.65146 120.157 8.65297 118.553C7.83602 117.252 6.86779 116.102 6.17187 114.65C5.59698 113.44 5.0826 111.564 5.68775 109.415C7.23088 104.09 13.7967 102.123 15.1281 108.477C15.6424 110.928 15.2188 113.742 14.7347 118.281C14.6439 119.067 14.5532 120.157 14.9465 120.792C15.3399 121.458 16.1568 121.549 16.9737 121.639C17.5184 121.7 18.063 121.76 18.5471 121.972C19.6061 122.456 20.181 123.788 19.939 125.27C19.7272 126.692 18.7589 127.963 18.0025 129.143C16.7922 131.08 14.4321 133.198 12.1931 133.077ZM8.25963 106.026C7.23088 106.904 6.38367 108.205 5.99032 109.506C5.38518 111.564 5.89955 113.379 6.44418 114.529C7.10985 115.951 8.07808 117.101 8.89503 118.402C9.92378 120.066 10.3776 121.579 10.3171 123.152C10.2264 125.21 9.19761 127.6 9.31864 129.567C9.43967 131.382 10.6197 132.713 12.1628 132.774C14.2506 132.895 16.5199 130.898 17.7302 128.992C18.4866 127.812 19.4246 126.571 19.6364 125.24C19.8179 123.909 19.3338 122.698 18.3958 122.275C17.9722 122.063 17.4276 122.033 16.9132 121.972C16.0358 121.881 15.128 121.791 14.6439 121.004C14.2203 120.308 14.2808 119.37 14.4019 118.281C14.8557 113.863 15.3096 110.989 14.7952 108.568C14.0388 104.725 10.9828 103.727 8.25963 106.026Z" fill="#CCD2FF"/>
<path d="M17.1567 132.562C17.0357 129.476 16.128 126.813 14.4033 124.604C9.65289 118.523 10.3791 110.686 10.4093 110.625C10.4396 110.474 10.5909 110.353 10.7422 110.353C10.8934 110.383 11.0145 110.504 11.0145 110.686C11.0145 110.777 10.2883 118.371 14.8874 124.241C16.6726 126.541 17.6408 129.324 17.7619 132.562C17.7619 132.743 17.6408 132.865 17.4593 132.865C17.308 132.865 17.1567 132.743 17.1567 132.562ZM22.9661 140.58H15.9162C15.7346 140.58 15.6136 140.459 15.6136 140.278C15.6136 140.096 15.7346 139.975 15.9162 139.975H22.9661C23.1477 139.975 23.2687 140.096 23.2687 140.278C23.2687 140.459 23.1174 140.58 22.9661 140.58Z" fill="#CCD2FF"/>
<path d="M88.9282 9.29354H86.3563C86.1747 9.29354 86.0537 9.17251 86.0537 8.99097C86.0537 8.80942 86.1747 8.68839 86.3563 8.68839H88.5348C87.5666 4.60365 89.2912 2.21331 92.7708 4.08927C92.4683 -2.35555 99.6695 -0.509849 104.359 4.96673C104.601 3.81695 105.6 3.90773 106.689 4.36159H109.17C109.352 4.36159 109.473 4.48262 109.473 4.66416C109.473 4.84571 109.352 4.96673 109.17 4.96673H106.629C106.114 4.96673 104.844 3.84721 104.934 5.75343C104.934 6.056 104.571 6.17703 104.39 5.96523C100.123 0.579417 92.6801 -2.14375 93.4365 4.6339C93.4668 4.87596 93.1944 5.05751 92.9826 4.93648C89.503 2.72769 88.1717 4.99699 89.2307 8.96071C89.261 9.11199 89.1097 9.29354 88.9282 9.29354Z" fill="#CCD2FF"/>
</svg>
