<svg width="16" height="16" viewBox="0 0 16 16" fill="none" xmlns="http://www.w3.org/2000/svg">
<path d="M2 16C1.68 16 1.4 15.87 1.16 15.61C0.92 15.35 0.8 15.0667 0.8 14.76V4.92C0.613333 4.89333 0.433333 4.76 0.26 4.52C0.0866667 4.28 0 4.02 0 3.74V1.2C0 0.893333 0.12 0.616667 0.36 0.37C0.6 0.123333 0.88 0 1.2 0H14.8C15.1067 0 15.3833 0.123333 15.63 0.37C15.8767 0.616667 16 0.893333 16 1.2V3.74C16 4.02 15.9133 4.28 15.74 4.52C15.5667 4.76 15.3867 4.89333 15.2 4.92V14.76C15.2 15.0667 15.0767 15.35 14.83 15.61C14.5833 15.87 14.3067 16 14 16H2ZM2 4.94V14.8H14V4.94H2ZM14.8 3.74V1.2H1.2V3.74H14.8ZM6.2 9.14H9.8C9.97 9.14 10.1125 9.08217 10.2275 8.9665C10.3425 8.85082 10.4 8.70749 10.4 8.5365C10.4 8.3655 10.3425 8.22333 10.2275 8.11C10.1125 7.99667 9.97 7.94 9.8 7.94H6.2C6.03 7.94 5.8875 7.99783 5.7725 8.1135C5.6575 8.22918 5.6 8.37251 5.6 8.5435C5.6 8.7145 5.6575 8.85667 5.7725 8.97C5.8875 9.08333 6.03 9.14 6.2 9.14Z" fill="#49454F"/>
</svg>
