<svg width="13" height="17" viewBox="0 0 13 17" fill="none" xmlns="http://www.w3.org/2000/svg">
<path d="M1.21429 17C0.880357 17 0.594494 16.8811 0.356696 16.6433C0.118899 16.4055 0 16.1196 0 15.7857V7.00238C0 6.66845 0.118899 6.38259 0.356696 6.14479C0.594494 5.90699 0.880357 5.7881 1.21429 5.7881H2.63095V3.84524C2.63095 2.78139 3.00607 1.87455 3.75631 1.12473C4.50655 0.374911 5.41389 0 6.47833 0C7.54278 0 8.4494 0.374911 9.19821 1.12473C9.94702 1.87455 10.3214 2.78139 10.3214 3.84524V5.7881H11.7381C12.072 5.7881 12.3579 5.90699 12.5957 6.14479C12.8335 6.38259 12.9524 6.66845 12.9524 7.00238V15.7857C12.9524 16.1196 12.8335 16.4055 12.5957 16.6433C12.3579 16.8811 12.072 17 11.7381 17H1.21429ZM1.21429 15.7857H11.7381V7.00238H1.21429V15.7857ZM6.47959 12.9524C6.90907 12.9524 7.27559 12.8038 7.57917 12.5065C7.88274 12.2093 8.03452 11.8519 8.03452 11.4345C8.03452 11.0298 7.8816 10.6621 7.57577 10.3315C7.26993 10.001 6.90227 9.83571 6.47279 9.83571C6.04331 9.83571 5.67679 10.001 5.37321 10.3315C5.06964 10.6621 4.91786 11.0331 4.91786 11.4446C4.91786 11.8562 5.07078 12.2103 5.37661 12.5071C5.68245 12.804 6.05011 12.9524 6.47959 12.9524ZM3.84524 5.7881H9.10714V3.84524C9.10714 3.11441 8.85159 2.49322 8.34048 1.98165C7.82936 1.47008 7.20873 1.21429 6.47858 1.21429C5.74841 1.21429 5.12698 1.47008 4.61429 1.98165C4.10159 2.49322 3.84524 3.11441 3.84524 3.84524V5.7881Z" fill="#49454F"/>
</svg>
