<svg width="37" height="37" viewBox="0 0 37 37" fill="none" xmlns="http://www.w3.org/2000/svg">
<g id="payments_FILL0_wght400_GRAD0_opsz48 2">
<path id="Vector" d="M20.2811 20.0938C19.3957 20.0938 18.6431 19.7839 18.0233 19.1641C17.4035 18.5443 17.0936 17.7917 17.0936 16.9062C17.0936 16.0208 17.4035 15.2682 18.0233 14.6484C18.6431 14.0286 19.3957 13.7188 20.2811 13.7188C21.1665 13.7188 21.9192 14.0286 22.5389 14.6484C23.1587 15.2682 23.4686 16.0208 23.4686 16.9062C23.4686 17.7917 23.1587 18.5443 22.5389 19.1641C21.9192 19.7839 21.1665 20.0938 20.2811 20.0938ZM11.7811 23.8125C11.3428 23.8125 10.9677 23.6564 10.6555 23.3443C10.3434 23.0322 10.1874 22.657 10.1874 22.2188V11.5938C10.1874 11.1555 10.3434 10.7803 10.6555 10.4682C10.9677 10.1561 11.3428 10 11.7811 10H28.7811C29.2194 10 29.5946 10.1561 29.9067 10.4682C30.2188 10.7803 30.3749 11.1555 30.3749 11.5938V22.2188C30.3749 22.657 30.2188 23.0322 29.9067 23.3443C29.5946 23.6564 29.2194 23.8125 28.7811 23.8125H11.7811ZM14.4374 22.2188H26.1249C26.1249 21.475 26.3817 20.8464 26.8952 20.3328C27.4087 19.8193 28.0374 19.5625 28.7811 19.5625V14.25C28.0374 14.25 27.4087 13.9932 26.8952 13.4797C26.3817 12.9661 26.1249 12.3375 26.1249 11.5938H14.4374C14.4374 12.3375 14.1806 12.9661 13.6671 13.4797C13.1535 13.9932 12.5249 14.25 11.7811 14.25V19.5625C12.5249 19.5625 13.1535 19.8193 13.6671 20.3328C14.1806 20.8464 14.4374 21.475 14.4374 22.2188ZM8.59363 27C8.15535 27 7.78015 26.8439 7.46804 26.5318C7.15593 26.2197 6.99988 25.8445 6.99988 25.4062V13.9844C6.99988 13.7586 7.07669 13.5693 7.23031 13.4166C7.38395 13.2639 7.57431 13.1875 7.8014 13.1875C8.02851 13.1875 8.21733 13.2639 8.36785 13.4166C8.51837 13.5693 8.59363 13.7586 8.59363 13.9844V25.4062H26.3905C26.6163 25.4062 26.8055 25.4831 26.9583 25.6367C27.111 25.7903 27.1874 25.9807 27.1874 26.2078C27.1874 26.4349 27.111 26.6237 26.9583 26.7742C26.8055 26.9247 26.6163 27 26.3905 27H8.59363Z" fill="#49454F"/>
</g>
</svg>
