<svg width="17" height="16" viewBox="0 0 17 16" fill="none" xmlns="http://www.w3.org/2000/svg">
<path d="M8.24477 7.72947C7.11111 7.72947 6.18357 7.36876 5.46216 6.64734C4.74074 5.92593 4.38003 4.99839 4.38003 3.86473C4.38003 2.73108 4.74074 1.80354 5.46216 1.08213C6.18357 0.360709 7.11111 0 8.24477 0C9.37842 0 10.306 0.360709 11.0274 1.08213C11.7488 1.80354 12.1095 2.73108 12.1095 3.86473C12.1095 4.99839 11.7488 5.92593 11.0274 6.64734C10.306 7.36876 9.37842 7.72947 8.24477 7.72947ZM14.9436 16H1.54589C1.12077 16 0.756844 15.8486 0.454106 15.5459C0.151369 15.2432 0 14.8792 0 14.4541V13.5781C0 12.9254 0.163178 12.3672 0.489533 11.9034C0.815888 11.4396 1.23671 11.0875 1.75201 10.847C2.90284 10.3317 4.00644 9.94525 5.0628 9.6876C6.11916 9.42995 7.17982 9.30113 8.24477 9.30113C9.30972 9.30113 10.3661 9.43425 11.4138 9.70048C12.4616 9.96672 13.5602 10.3506 14.7097 10.852C15.2474 11.0947 15.6784 11.4465 16.0029 11.9075C16.3273 12.3685 16.4895 12.9254 16.4895 13.5781V14.4541C16.4895 14.8792 16.3382 15.2432 16.0354 15.5459C15.7327 15.8486 15.3688 16 14.9436 16ZM1.54589 14.4541H14.9436V13.5781C14.9436 13.3033 14.862 13.0413 14.6989 12.7923C14.5357 12.5432 14.3339 12.3586 14.0934 12.2383C12.9941 11.7059 11.9893 11.3408 11.0789 11.1433C10.1685 10.9458 9.22383 10.847 8.24477 10.847C7.2657 10.847 6.3124 10.9458 5.38486 11.1433C4.45733 11.3408 3.4525 11.7059 2.37037 12.2383C2.1299 12.3586 1.93237 12.5432 1.77778 12.7923C1.62319 13.0413 1.54589 13.3033 1.54589 13.5781V14.4541ZM8.24477 6.18358C8.91465 6.18358 9.4686 5.96457 9.9066 5.52657C10.3446 5.08857 10.5636 4.53462 10.5636 3.86473C10.5636 3.19485 10.3446 2.6409 9.9066 2.2029C9.4686 1.7649 8.91465 1.54589 8.24477 1.54589C7.57488 1.54589 7.02093 1.7649 6.58293 2.2029C6.14493 2.6409 5.92593 3.19485 5.92593 3.86473C5.92593 4.53462 6.14493 5.08857 6.58293 5.52657C7.02093 5.96457 7.57488 6.18358 8.24477 6.18358Z" fill="#49454F"/>
</svg>
