<svg width="19" height="16" viewBox="0 0 19 16" fill="none" xmlns="http://www.w3.org/2000/svg">
<path d="M13.7055 4.26667V1.33333H5.79442V4.26667H4.46108V0.666667C4.46108 0.477778 4.52497 0.319444 4.65275 0.191667C4.78053 0.0638889 4.93886 0 5.12775 0H14.3722C14.5611 0 14.7194 0.0638889 14.8472 0.191667C14.975 0.319444 15.0389 0.477778 15.0389 0.666667V4.26667H13.7055ZM15.5055 7.71111C15.6833 7.71111 15.8389 7.64444 15.9722 7.51111C16.1055 7.37778 16.1722 7.22222 16.1722 7.04444C16.1722 6.86667 16.1055 6.71111 15.9722 6.57778C15.8389 6.44444 15.6833 6.37778 15.5055 6.37778C15.3278 6.37778 15.1722 6.44444 15.0389 6.57778C14.9055 6.71111 14.8389 6.86667 14.8389 7.04444C14.8389 7.22222 14.9055 7.37778 15.0389 7.51111C15.1722 7.64444 15.3278 7.71111 15.5055 7.71111ZM5.79442 14.6667H13.7055V10.4H5.79442V14.6667ZM5.79442 16C5.42775 16 5.11386 15.8694 4.85275 15.6083C4.59164 15.3472 4.46108 15.0333 4.46108 14.6667V12.0889H1.52775C1.33886 12.0889 1.18053 12.025 1.05275 11.8972C0.924973 11.7694 0.861084 11.6111 0.861084 11.4222V6.62222C0.861084 5.95481 1.08701 5.39537 1.53886 4.94389C1.99071 4.49241 2.54997 4.26667 3.21664 4.26667H16.2833C16.9507 4.26667 17.5102 4.49241 17.9616 4.94389C18.4131 5.39537 18.6389 5.95481 18.6389 6.62222V11.4222C18.6389 11.6111 18.575 11.7694 18.4472 11.8972C18.3194 12.025 18.1611 12.0889 17.9722 12.0889H15.0389V14.6667C15.0389 15.0333 14.9083 15.3472 14.6472 15.6083C14.3861 15.8694 14.0722 16 13.7055 16H5.79442ZM17.3055 10.7556V6.61744C17.3055 6.32433 17.2076 6.08148 17.0116 5.88889C16.8157 5.6963 16.5729 5.6 16.2833 5.6H3.21664C2.92701 5.6 2.68423 5.69796 2.48831 5.89389C2.29238 6.08982 2.19442 6.33259 2.19442 6.62222V10.7556H4.46108V9.06667H15.0389V10.7556H17.3055Z" fill="#663CEF"/>
</svg>
