<svg width="20" height="20" viewBox="0 0 20 20" fill="none" xmlns="http://www.w3.org/2000/svg">
<path d="M10.2132 13.3639C11.0859 13.3639 11.8171 13.069 12.4069 12.4792C12.9968 11.8894 13.2917 11.1581 13.2917 10.2854C13.2917 9.41273 12.9968 8.68449 12.4069 8.10069C11.8171 7.5169 11.0859 7.225 10.2132 7.225C9.34051 7.225 8.61227 7.5169 8.02847 8.10069C7.44468 8.68449 7.15278 9.41273 7.15278 10.2854C7.15278 11.1581 7.44468 11.8894 8.02847 12.4792C8.61227 13.069 9.34051 13.3639 10.2132 13.3639ZM4.08333 16C3.79444 16 3.54167 15.8917 3.325 15.675C3.10833 15.4583 3 15.2056 3 14.9167V5.65417C3 5.37731 3.10833 5.12755 3.325 4.90486C3.54167 4.68218 3.79444 4.57083 4.08333 4.57083H6.7375L7.73056 3.37917C7.82685 3.24676 7.94722 3.15046 8.09167 3.09028C8.23611 3.03009 8.39259 3 8.56111 3H11.8833C12.0519 3 12.2083 3.03009 12.3528 3.09028C12.4972 3.15046 12.6176 3.24676 12.7139 3.37917L13.7069 4.57083H16.3611C16.638 4.57083 16.8877 4.68218 17.1104 4.90486C17.3331 5.12755 17.4444 5.37731 17.4444 5.65417V14.9167C17.4444 15.2056 17.3331 15.4583 17.1104 15.675C16.8877 15.8917 16.638 16 16.3611 16H4.08333ZM16.3611 14.9167V5.65417H4.08333V14.9167H16.3611Z" fill="white"/>
</svg>
