<svg width="176" height="65" viewBox="0 0 176 65" fill="none" xmlns="http://www.w3.org/2000/svg">
<path d="M107.418 47.5566H84.765C84.2206 47.5566 83.7793 48.0117 83.7793 48.5731V50.4581C83.7793 51.0194 84.2206 51.4745 84.765 51.4745H107.418C107.963 51.4745 108.404 51.0194 108.404 50.4581V48.5731C108.404 48.0117 107.963 47.5566 107.418 47.5566Z" fill="white" stroke="#263238" stroke-width="0.7" stroke-miterlimit="10"/>
<path d="M86.3117 47.9639H84.7646V51.1831H86.3117V47.9639Z" fill="#663CEF"/>
<path d="M88.2414 47.9639H86.6943V51.1831H88.2414V47.9639Z" fill="#663CEF"/>
<path d="M90.1701 47.9639H88.623V51.1831H90.1701V47.9639Z" fill="#663CEF"/>
<path d="M92.0998 47.9639H90.5527V51.1831H92.0998V47.9639Z" fill="#663CEF"/>
<path d="M94.0285 47.9639H92.4814V51.1831H94.0285V47.9639Z" fill="#663CEF"/>
<path d="M95.9572 47.9639H94.4102V51.1831H95.9572V47.9639Z" fill="#663CEF"/>
<path d="M97.8869 47.9639H96.3398V51.1831H97.8869V47.9639Z" fill="#663CEF"/>
<path d="M99.8156 47.9639H98.2686V51.1831H99.8156V47.9639Z" fill="#663CEF"/>
<path d="M99.4775 20.9282L101.506 19.9748L101.084 17.463L98.8464 17.2845C98.561 16.5143 98.1846 15.7832 97.7257 15.1079L98.8802 13.0989L97.1305 11.2945L95.1676 12.4982C94.037 11.7044 92.7569 11.1653 91.4108 10.9158L90.8451 8.60205H88.3715L87.8016 10.9288C87.0352 11.0797 86.2891 11.3244 85.5791 11.658L83.8104 10.08L81.7863 11.5426L82.6306 13.7998C82.0859 14.373 81.609 15.0108 81.2102 15.7L78.8885 15.4518L78.0442 17.8461L79.9712 19.1934C79.8787 19.7528 79.8321 20.3193 79.8319 20.8868C79.8319 21.1284 79.8319 21.3657 79.8594 21.6029L77.8311 22.7696L78.4642 25.2335L80.7606 25.203C81.1008 25.9421 81.526 26.6364 82.027 27.2708L81.035 29.393L82.9345 31.032L84.7708 29.676C85.4661 30.0899 86.2083 30.4138 86.9806 30.6402L87.3499 32.9235L89.813 33.1411L90.556 30.9797C91.3644 30.9054 92.1607 30.727 92.9262 30.4487L94.4796 32.0789L96.6219 30.8034L96.033 28.6072C96.6539 28.0632 97.2069 27.4417 97.6793 26.7571L99.8553 27.1707L100.911 24.8613L99.2031 23.4073C99.3942 22.5959 99.4864 21.7631 99.4775 20.9282ZM95.8198 20.8846C95.8198 22.1438 95.4578 23.3747 94.7794 24.4217C94.101 25.4687 93.1369 26.2847 92.0088 26.7666C90.8807 27.2485 89.6394 27.3745 88.4419 27.1289C87.2443 26.8832 86.1443 26.2769 85.2809 25.3865C84.4175 24.4961 83.8296 23.3617 83.5914 22.1267C83.3531 20.8917 83.4754 19.6116 83.9427 18.4483C84.4099 17.2849 85.2012 16.2906 86.2164 15.591C87.2317 14.8915 88.4253 14.5181 89.6463 14.5181C90.4572 14.5181 91.2601 14.6828 92.0093 15.0029C92.7584 15.323 93.4391 15.7921 94.0124 16.3836C94.5857 16.975 95.0404 17.6771 95.3505 18.4498C95.6606 19.2224 95.8201 20.0506 95.8198 20.8868V20.8846Z" fill="#663CEF" stroke="#263238" stroke-width="0.7" stroke-linecap="round" stroke-linejoin="round"/>
<path d="M75.6191 23.353C75.7326 24.0966 75.9012 24.8301 76.1236 25.547" stroke="#263238" stroke-linecap="round" stroke-linejoin="round"/>
<path d="M100.546 11.4511C98.6456 9.17177 96.1143 7.54687 93.2921 6.79484C90.47 6.04281 87.4922 6.19968 84.7591 7.24437C82.0259 8.28905 79.6683 10.1715 78.0031 12.6387C76.338 15.1059 75.445 18.0396 75.4443 21.0456C75.4443 21.1806 75.4443 21.3133 75.4443 21.4483" stroke="#263238" stroke-linecap="round" stroke-linejoin="round"/>
<path d="M101.504 10.1167L101.882 13.3381L98.9883 12.0648L101.504 10.1167Z" fill="#263238"/>
<path d="M116.259 32.3967L117.992 31.8634L117.545 29.2515L115.727 29.3646C115.49 28.7212 115.178 28.1102 114.797 27.545L115.939 26.0606L114.119 24.193L112.667 25.3815C111.727 24.7263 110.664 24.2814 109.548 24.0755L109.337 22.1514H106.762L106.551 24.0885C105.912 24.2135 105.291 24.4167 104.7 24.6936L103.433 23.2288L101.323 24.7524L102.228 26.4785C101.775 26.9552 101.378 27.4856 101.046 28.0587L99.1971 27.6038L98.3233 30.0699L100.012 30.9405C99.9345 31.4057 99.8957 31.8768 99.8957 32.3488C99.8957 32.549 99.8957 32.7471 99.919 32.9452L98.165 33.6591L98.8299 36.221L100.672 35.9402C100.955 36.5553 101.31 37.1327 101.728 37.6597L100.706 39.2551L102.678 40.9594L104.007 39.6535C104.587 39.9972 105.205 40.2662 105.848 40.4545L105.896 42.3307L108.459 42.5614L108.822 40.7396C109.494 40.6791 110.156 40.5328 110.793 40.3043L111.863 41.7909L114.09 40.4653L113.378 38.7719C113.894 38.3182 114.354 37.8014 114.748 37.2331L116.449 37.8164L117.536 35.4221L116.002 34.4601C116.17 33.786 116.257 33.0928 116.259 32.3967ZM113.216 32.3597C113.216 33.4076 112.914 34.4319 112.35 35.3032C111.785 36.1745 110.983 36.8535 110.044 37.2544C109.105 37.6554 108.072 37.7602 107.076 37.5556C106.079 37.351 105.164 36.8462 104.445 36.105C103.727 35.3639 103.238 34.4197 103.04 33.3919C102.842 32.364 102.944 31.2988 103.333 30.3307C103.722 29.3627 104.381 28.5355 105.226 27.9536C106.071 27.3717 107.065 27.0614 108.081 27.0618C108.755 27.0618 109.423 27.1988 110.046 27.4651C110.669 27.7314 111.236 28.1217 111.713 28.6136C112.189 29.1056 112.568 29.6897 112.826 30.3324C113.083 30.9752 113.216 31.664 113.216 32.3597Z" fill="#663CEF" stroke="#263238" stroke-width="0.7" stroke-linecap="round" stroke-linejoin="round"/>
<path d="M118.72 27.3032C119.893 29.8212 120.198 32.6768 119.582 35.3973C118.967 38.1178 117.469 40.5399 115.336 42.2626C113.204 43.9853 110.565 44.9053 107.856 44.8701C105.148 44.835 102.532 43.8468 100.442 42.0693" stroke="#263238" stroke-linecap="round" stroke-linejoin="round"/>
<path d="M117.557 28.5508L117.547 25.3076L120.278 26.9205L117.557 28.5508Z" fill="#263238"/>
<path d="M166.976 42.9608C166.979 42.6535 167.056 42.3517 167.201 42.0814C167.346 41.8111 167.554 41.5806 167.808 41.4099C168.061 41.2392 168.352 41.1334 168.656 41.1018C168.959 41.0701 169.265 41.1136 169.548 41.2284C169.753 40.8033 170.085 40.4531 170.496 40.2264C170.908 39.9996 171.379 39.9076 171.845 39.963C172.311 40.0184 172.749 40.2184 173.097 40.5355C173.445 40.8526 173.686 41.2709 173.788 41.7325C174.293 41.7644 174.766 41.9933 175.106 42.3707C175.446 42.7481 175.628 43.2443 175.611 43.7541C175.595 44.2638 175.382 44.7471 175.018 45.1013C174.653 45.4555 174.167 45.6529 173.661 45.6514H167.472C167.151 45.6493 166.841 45.5344 166.595 45.3266C166.349 45.1188 166.183 44.831 166.124 44.5128C166.066 44.1946 166.12 43.8659 166.276 43.5833C166.433 43.3007 166.682 43.0819 166.981 42.9646L166.976 42.9608Z" fill="#F8F9FA"/>
<path d="M134.29 21.9139C134.293 21.5523 134.384 21.1968 134.554 20.8786C134.725 20.5603 134.97 20.2888 135.268 20.0878C135.567 19.8868 135.909 19.7623 136.266 19.7251C136.623 19.6879 136.984 19.7392 137.316 19.8745C137.56 19.3772 137.951 18.9681 138.435 18.7036C138.919 18.439 139.472 18.3319 140.019 18.397C140.565 18.462 141.079 18.696 141.488 19.0669C141.897 19.4377 142.183 19.9272 142.305 20.4682C142.911 20.4882 143.484 20.75 143.899 21.1961C144.313 21.6421 144.535 22.2359 144.515 22.8467C144.495 23.4575 144.236 24.0353 143.793 24.453C143.35 24.8708 142.761 25.0942 142.155 25.0742H134.868C134.488 25.0739 134.121 24.9397 133.829 24.6948C133.538 24.45 133.341 24.1099 133.272 23.7338C133.203 23.3576 133.268 22.9691 133.454 22.6357C133.639 22.3023 133.935 22.0452 134.29 21.9088V21.9139Z" fill="#F5F5F5"/>
<path d="M36.0086 37.3916C36.0118 36.8691 36.1421 36.3552 36.3879 35.8951C36.6338 35.435 36.9878 35.0426 37.4189 34.7523C37.85 34.4619 38.3451 34.2824 38.861 34.2296C39.3768 34.1767 39.8976 34.252 40.3779 34.4489C40.7271 33.727 41.2904 33.1325 41.9897 32.7475C42.689 32.3626 43.4898 32.2065 44.2812 32.3006C45.0725 32.3948 45.8151 32.7347 46.4063 33.2732C46.9975 33.8117 47.4078 34.5221 47.5806 35.3061C48.4559 35.3348 49.2841 35.7128 49.883 36.3569C50.4818 37.0011 50.8023 37.8586 50.7738 38.7408C50.7454 39.6231 50.3704 40.4578 49.7313 41.0614C49.0922 41.665 48.2414 41.9879 47.3661 41.9593H36.8439C36.2962 41.9586 35.766 41.7648 35.3453 41.4113C34.9246 41.0579 34.64 40.5671 34.5408 40.0243C34.4415 39.4814 34.534 38.9206 34.8021 38.4393C35.0702 37.9579 35.4971 37.5864 36.0086 37.3891V37.3916Z" fill="#F0F0F0"/>
<path d="M1.82627 18.0233C1.83018 17.5251 1.95491 17.0354 2.18958 16.5969C2.42426 16.1584 2.76176 15.7844 3.17268 15.5075C3.58359 15.2306 4.05546 15.0592 4.54717 15.0082C5.03887 14.9572 5.5355 15.0281 5.99376 15.2149C6.32726 14.5265 6.86478 13.9596 7.53196 13.5926C8.19914 13.2257 8.96299 13.0768 9.7178 13.1666C10.4726 13.2564 11.1811 13.5804 11.7452 14.0938C12.3093 14.6073 12.7011 15.2847 12.8664 16.0324C13.6808 16.0894 14.4416 16.4624 14.9888 17.073C15.536 17.6836 15.827 18.4843 15.8007 19.3066C15.7744 20.129 15.4328 20.9091 14.8477 21.4829C14.2627 22.0567 13.4796 22.3796 12.6633 22.3836H2.62346C2.10072 22.3834 1.59458 22.1986 1.19292 21.8614C0.79126 21.5242 0.519465 21.0559 0.424734 20.5378C0.330003 20.0196 0.41832 19.4844 0.674349 19.0251C0.930377 18.5657 1.33794 18.2113 1.82627 18.0233Z" fill="#F8F9FA"/>
</svg>
