<svg width="48" height="48" viewBox="0 0 48 48" fill="none" xmlns="http://www.w3.org/2000/svg">
<path d="M7.45 41.2502C6.15 41.2502 5.04167 40.7919 4.125 39.8752C3.20833 38.9585 2.75 37.8502 2.75 36.5502V11.4502C2.75 10.1502 3.20833 9.03353 4.125 8.1002C5.04167 7.16686 6.15 6.7002 7.45 6.7002H40.55C41.85 6.7002 42.9667 7.16686 43.9 8.1002C44.8333 9.03353 45.3 10.1502 45.3 11.4502V29.3502C44.3667 28.8502 43.4083 28.4669 42.425 28.2002C41.4417 27.9335 40.4333 27.8002 39.4 27.8002C35.8667 27.8002 32.8667 29.0169 30.4 31.4502C27.9333 33.8835 26.7 36.8669 26.7 40.4002V41.2502H7.45ZM24 22.1002L10.15 13.2002C9.55 12.8335 8.95 12.8169 8.35 13.1502C7.75 13.4835 7.45 14.0002 7.45 14.7002C7.45 15.0002 7.53333 15.2752 7.7 15.5252C7.86667 15.7752 8.06667 15.9669 8.3 16.1002L22.7 25.4002C23.1 25.6669 23.5333 25.8002 24 25.8002C24.4667 25.8002 24.9 25.6669 25.3 25.4002L39.75 16.1002C39.9833 15.9669 40.175 15.7752 40.325 15.5252C40.475 15.2752 40.55 15.0002 40.55 14.7002C40.55 13.9669 40.25 13.4419 39.65 13.1252C39.05 12.8085 38.45 12.8335 37.85 13.2002L24 22.1002ZM39.95 41.2502H31.55C31.05 41.2502 30.6167 41.0752 30.25 40.7252C29.8833 40.3752 29.7 39.9335 29.7 39.4002C29.7 38.8669 29.8833 38.4169 30.25 38.0502C30.6167 37.6835 31.05 37.5002 31.55 37.5002H39.95L37.9 35.5002C37.5333 35.1335 37.3583 34.6919 37.375 34.1752C37.3917 33.6585 37.5833 33.2169 37.95 32.8502C38.3167 32.4835 38.75 32.3002 39.25 32.3002C39.75 32.3002 40.2 32.5002 40.6 32.9002L45.45 37.7502C45.8833 38.2169 46.1 38.7669 46.1 39.4002C46.1 40.0335 45.8833 40.5835 45.45 41.0502L40.6 45.9002C40.2 46.3002 39.75 46.5002 39.25 46.5002C38.75 46.5002 38.3167 46.3002 37.95 45.9002C37.5833 45.5335 37.4 45.1085 37.4 44.6252C37.4 44.1419 37.5833 43.7002 37.95 43.3002L39.95 41.2502Z" fill="#663CEF"/>
</svg>
