<svg width="15" height="16" viewBox="0 0 15 16" fill="none" xmlns="http://www.w3.org/2000/svg">
<path d="M12.18 16C11.5467 16 11.0084 15.7777 10.565 15.3331C10.1217 14.8885 9.90004 14.3486 9.90004 13.7134C9.90004 13.6245 9.91004 13.5157 9.93004 13.3871C9.95004 13.2586 9.98004 13.1429 10.02 13.04L3.96004 9.52C3.76004 9.74667 3.51337 9.93 3.22004 10.07C2.92671 10.21 2.62671 10.28 2.32004 10.28C1.68671 10.28 1.14837 10.0583 0.705039 9.615C0.261706 9.17167 0.0400391 8.63333 0.0400391 8C0.0400391 7.36667 0.261706 6.82833 0.705039 6.385C1.14837 5.94167 1.68671 5.72 2.32004 5.72C2.62671 5.72 2.92004 5.78 3.20004 5.9C3.48004 6.02 3.73337 6.19333 3.96004 6.42L10.02 2.94C9.98004 2.84572 9.95004 2.73965 9.93004 2.62178C9.91004 2.50393 9.90004 2.39 9.90004 2.28C9.90004 1.64667 10.1217 1.10833 10.565 0.665C11.0084 0.221667 11.5467 0 12.18 0C12.8134 0 13.3517 0.221667 13.795 0.665C14.2384 1.10833 14.46 1.64667 14.46 2.28C14.46 2.91333 14.2384 3.45167 13.795 3.895C13.3517 4.33833 12.8134 4.56 12.18 4.56C11.8687 4.56 11.5708 4.51 11.2865 4.41C11.0022 4.31 10.76 4.14667 10.56 3.92L4.50004 7.28C4.52671 7.38667 4.55004 7.51 4.57004 7.65C4.59004 7.79 4.60004 7.90827 4.60004 8.00482C4.60004 8.10138 4.59004 8.20138 4.57004 8.30482C4.55004 8.40827 4.52671 8.51333 4.50004 8.62L10.56 12.06C10.76 11.8733 10.9934 11.7233 11.26 11.61C11.5267 11.4967 11.8334 11.44 12.18 11.44C12.8134 11.44 13.3517 11.6617 13.795 12.105C14.2384 12.5483 14.46 13.0867 14.46 13.72C14.46 14.3533 14.2384 14.8917 13.795 15.335C13.3517 15.7783 12.8134 16 12.18 16ZM12.1807 3.36C12.4869 3.36 12.7434 3.25643 12.95 3.0493C13.1567 2.84217 13.26 2.5855 13.26 2.2793C13.26 1.9731 13.1565 1.71667 12.9493 1.51C12.7422 1.30333 12.4855 1.2 12.1793 1.2C11.8731 1.2 11.6167 1.30357 11.41 1.5107C11.2034 1.71783 11.1 1.9745 11.1 2.2807C11.1 2.5869 11.2036 2.84333 11.4107 3.05C11.6179 3.25667 11.8745 3.36 12.1807 3.36ZM2.32074 9.08C2.62694 9.08 2.88337 8.97643 3.09004 8.7693C3.29671 8.56217 3.40004 8.3055 3.40004 7.9993C3.40004 7.6931 3.29647 7.43667 3.08934 7.23C2.88221 7.02333 2.62554 6.92 2.31934 6.92C2.01314 6.92 1.75671 7.02357 1.55004 7.2307C1.34337 7.43783 1.24004 7.6945 1.24004 8.0007C1.24004 8.3069 1.34361 8.56333 1.55074 8.77C1.75787 8.97667 2.01454 9.08 2.32074 9.08ZM12.1807 14.8C12.4869 14.8 12.7434 14.6964 12.95 14.4893C13.1567 14.2822 13.26 14.0255 13.26 13.7193C13.26 13.4131 13.1565 13.1567 12.9493 12.95C12.7422 12.7433 12.4855 12.64 12.1793 12.64C11.8731 12.64 11.6167 12.7436 11.41 12.9507C11.2034 13.1578 11.1 13.4145 11.1 13.7207C11.1 14.0269 11.2036 14.2833 11.4107 14.49C11.6179 14.6967 11.8745 14.8 12.1807 14.8Z" fill="#663CEF"/>
</svg>
