<svg width="17" height="17" viewBox="0 0 17 17" fill="none" xmlns="http://www.w3.org/2000/svg">
<path d="M11.1444 16.7403L5.40694 14.7097L1.18056 16.3861C0.912963 16.5278 0.649306 16.5199 0.389583 16.3625C0.129861 16.2051 0 15.969 0 15.6542V2.47917C0 2.27454 0.0590278 2.09352 0.177083 1.93611C0.295139 1.7787 0.448611 1.66065 0.6375 1.58194L4.93472 0.0708333C5.09213 0.0236111 5.24954 0 5.40694 0C5.56435 0 5.72176 0.0236111 5.87917 0.0708333L11.6167 2.07778L15.8194 0.401389C16.087 0.275463 16.3507 0.287269 16.6104 0.436806C16.8701 0.586343 17 0.818519 17 1.13333V14.4736C17 14.6468 16.941 14.7963 16.8229 14.9222C16.7049 15.0481 16.5593 15.1426 16.3861 15.2056L12.0889 16.7403C11.9315 16.7875 11.7741 16.8111 11.6167 16.8111C11.4593 16.8111 11.3019 16.7875 11.1444 16.7403ZM10.8139 15.1347V3.21111L6.18611 1.65278V13.5764L10.8139 15.1347ZM12.2306 15.1347L15.5833 14.025V1.93611L12.2306 3.21111V15.1347ZM1.41667 14.8514L4.76944 13.5764V1.65278L1.41667 2.7625V14.8514Z" fill="#49454F"/>
</svg>
