<svg width="65" height="65" viewBox="0 0 65 65" fill="none" xmlns="http://www.w3.org/2000/svg">
<g clip-path="url(#clip0_11_8692)">
<path d="M50.647 24.834C49.6555 22.4883 48.2357 20.3821 46.4265 18.5736C44.6173 16.7644 42.5112 15.3446 40.1661 14.3531C37.7382 13.3252 35.1592 12.8052 32.4999 12.8052C29.8407 12.8052 27.2617 13.3252 24.8338 14.3531C22.488 15.3446 20.3819 16.7644 18.5734 18.5736C16.7642 20.3828 15.3444 22.4889 14.3528 24.834C13.3249 27.2619 12.8049 29.8409 12.8049 32.5002C12.8049 35.1594 13.3249 37.7384 14.3528 40.1663C15.3444 42.5121 16.7642 44.6182 18.5734 46.4267C20.3825 48.2353 22.4887 49.6557 24.8338 50.6473C27.2617 51.6752 29.8407 52.1952 32.4999 52.1952C35.1592 52.1952 37.7382 51.6752 40.1661 50.6473C42.5118 49.6557 44.618 48.2359 46.4265 46.4267C48.235 44.6176 49.6555 42.5114 50.647 40.1663C51.6749 37.7384 52.1949 35.1594 52.1949 32.5002C52.1949 29.8409 51.6749 27.2619 50.647 24.834ZM29.9981 44.564L24.7662 40.0733L19.7274 35.7489L24.2048 30.5323L28.8357 34.5069L39.7213 20.4363L45.2705 24.4931L29.9968 44.564H29.9981Z" fill="#5AA469"/>
<path d="M65 32.5153L61.3702 26.7723L62.5332 20.0793L56.9878 16.157L55.4902 9.53206L48.8647 8.03642L44.9513 2.48338L38.257 3.62853L32.5153 0L26.7724 3.6298L20.0793 2.46681L16.157 8.0122L9.53206 9.50975L8.03642 16.1353L2.48338 20.0487L3.62853 26.743L0 32.4847L3.6298 38.2276L2.46681 44.9207L8.01221 48.843L9.50976 55.4679L16.1353 56.9636L20.0487 62.5166L26.743 61.3715L32.4847 64.9994L38.2276 61.3695L44.9207 62.5325L48.843 56.9871L55.4679 55.4896L56.9636 48.8641L62.5166 44.9507L61.3715 38.2563L64.9994 32.5147L65 32.5153ZM32.5 55.61C19.7364 55.61 9.38995 45.2636 9.38995 32.5C9.38995 19.7364 19.7364 9.38995 32.5 9.38995C45.2636 9.38995 55.6101 19.7364 55.6101 32.5C55.6101 45.2636 45.2636 55.61 32.5 55.61Z" fill="#5AA469"/>
</g>
<defs>
<clipPath id="clip0_11_8692">
<rect width="65" height="65" fill="white"/>
</clipPath>
</defs>
</svg>
