<svg width="40" height="40" viewBox="0 0 40 40" fill="none" xmlns="http://www.w3.org/2000/svg">
<rect width="40" height="40" rx="7" fill="#1D1B20"/>
<path d="M9.7002 28.0001C9.48353 28.0001 9.30436 27.9293 9.1627 27.7876C9.02103 27.6459 8.9502 27.4668 8.9502 27.2501V25.6501C8.9502 25.0668 9.1002 24.5376 9.4002 24.0626C9.7002 23.5876 10.1169 23.2334 10.6502 23.0001C11.8669 22.4668 12.9627 22.0834 13.9377 21.8501C14.9127 21.6168 15.9169 21.5001 16.9502 21.5001C17.9835 21.5001 18.9835 21.6168 19.9502 21.8501C20.9169 22.0834 22.0085 22.4668 23.2252 23.0001C23.7585 23.2334 24.1794 23.5876 24.4877 24.0626C24.796 24.5376 24.9502 25.0668 24.9502 25.6501V27.2501C24.9502 27.4668 24.8794 27.6459 24.7377 27.7876C24.596 27.9293 24.4169 28.0001 24.2002 28.0001H9.7002ZM25.9002 28.0001C26.0669 27.9668 26.2002 27.8793 26.3002 27.7376C26.4002 27.5959 26.4502 27.4168 26.4502 27.2001V25.6501C26.4502 24.6001 26.1835 23.7376 25.6502 23.0626C25.1169 22.3876 24.4169 21.8418 23.5502 21.4251C24.7002 21.5584 25.7835 21.7543 26.8002 22.0126C27.8169 22.2709 28.6419 22.5668 29.2752 22.9001C29.8252 23.2168 30.2585 23.6084 30.5752 24.0751C30.8919 24.5418 31.0502 25.0668 31.0502 25.6501V27.2501C31.0502 27.4668 30.9794 27.6459 30.8377 27.7876C30.696 27.9293 30.5169 28.0001 30.3002 28.0001H25.9002ZM16.9502 19.9751C15.8502 19.9751 14.9502 19.6251 14.2502 18.9251C13.5502 18.2251 13.2002 17.3251 13.2002 16.2251C13.2002 15.1251 13.5502 14.2251 14.2502 13.5251C14.9502 12.8251 15.8502 12.4751 16.9502 12.4751C18.0502 12.4751 18.9502 12.8251 19.6502 13.5251C20.3502 14.2251 20.7002 15.1251 20.7002 16.2251C20.7002 17.3251 20.3502 18.2251 19.6502 18.9251C18.9502 19.6251 18.0502 19.9751 16.9502 19.9751ZM25.9502 16.2251C25.9502 17.3251 25.6002 18.2251 24.9002 18.9251C24.2002 19.6251 23.3002 19.9751 22.2002 19.9751C22.0169 19.9751 21.8127 19.9626 21.5877 19.9376C21.3627 19.9126 21.1585 19.8668 20.9752 19.8001C21.3752 19.3834 21.6794 18.8709 21.8877 18.2626C22.096 17.6543 22.2002 16.9751 22.2002 16.2251C22.2002 15.4751 22.096 14.8126 21.8877 14.2376C21.6794 13.6626 21.3752 13.1334 20.9752 12.6501C21.1585 12.6001 21.3627 12.5584 21.5877 12.5251C21.8127 12.4918 22.0169 12.4751 22.2002 12.4751C23.3002 12.4751 24.2002 12.8251 24.9002 13.5251C25.6002 14.2251 25.9502 15.1251 25.9502 16.2251ZM10.4502 26.5001H23.4502V25.6501C23.4502 25.3834 23.371 25.1251 23.2127 24.8751C23.0544 24.6251 22.8585 24.4501 22.6252 24.3501C21.4252 23.8168 20.4169 23.4584 19.6002 23.2751C18.7835 23.0918 17.9002 23.0001 16.9502 23.0001C16.0002 23.0001 15.1127 23.0918 14.2877 23.2751C13.4627 23.4584 12.4502 23.8168 11.2502 24.3501C11.0169 24.4501 10.8252 24.6251 10.6752 24.8751C10.5252 25.1251 10.4502 25.3834 10.4502 25.6501V26.5001ZM16.9502 18.4751C17.6002 18.4751 18.1377 18.2626 18.5627 17.8376C18.9877 17.4126 19.2002 16.8751 19.2002 16.2251C19.2002 15.5751 18.9877 15.0376 18.5627 14.6126C18.1377 14.1876 17.6002 13.9751 16.9502 13.9751C16.3002 13.9751 15.7627 14.1876 15.3377 14.6126C14.9127 15.0376 14.7002 15.5751 14.7002 16.2251C14.7002 16.8751 14.9127 17.4126 15.3377 17.8376C15.7627 18.2626 16.3002 18.4751 16.9502 18.4751Z" fill="white"/>
</svg>
